<?xml version="1.0" encoding="UTF-8"?>
<svg version="1.1" xmlns="http://www.w3.org/2000/svg" width="1042" height="1023">
<path d="M0 0 C343.86 0 687.72 0 1042 0 C1042 337.59 1042 675.18 1042 1023 C698.14 1023 354.28 1023 0 1023 C0 685.41 0 347.82 0 0 Z " fill="#F3C0C2" transform="translate(0,0)"/>
<path d="M0 0 C11.13610205 -0.06977071 22.27215138 -0.12294808 33.40842819 -0.15543652 C38.58046995 -0.17103598 43.75236123 -0.19216887 48.92431641 -0.22631836 C53.92343864 -0.25911691 58.92241689 -0.27689593 63.92163849 -0.28463173 C65.82084669 -0.29013866 67.72004778 -0.30089151 69.61919403 -0.31719017 C87.90110898 -0.46772685 103.10243825 1.77312638 116.99609375 14.796875 C120.36750256 18.5034531 122.75552477 22.53991738 125 27 C125.32871094 27.61101562 125.65742187 28.22203125 125.99609375 28.8515625 C131.59233789 41.00799713 128.90826002 54.85106769 125 67 C124.67 67.66 124.34 68.32 124 69 C123.34 69 122.68 69 122 69 C121.896875 69.58136719 121.79375 70.16273438 121.6875 70.76171875 C119.12268241 79.11194876 109.08678547 85.58129023 101.9375 89.8125 C95.76577683 92.30745192 89.89181707 93.23619 83.296875 93.65625 C80.84864532 94.02265172 79.14030149 94.7825808 77 96 C76.65134445 100.12746641 76.61442889 102.37797822 78.828125 105.94921875 C79.62734375 106.85285156 80.4265625 107.75648438 81.25 108.6875 C82.03890625 109.59886719 82.8278125 110.51023437 83.640625 111.44921875 C85.14741606 113.07824948 86.69679122 114.66953578 88.296875 116.20703125 C90 118 90 118 90 120 C90.66 120 91.32 120 92 120 C92 120.66 92 121.32 92 122 C93.485 122.495 93.485 122.495 95 123 C100 128.46511628 100 128.46511628 100 131 C100.99 131.33 101.98 131.66 103 132 C104.60546875 133.55859375 104.60546875 133.55859375 106.1875 135.4375 C106.71730469 136.05496094 107.24710938 136.67242188 107.79296875 137.30859375 C109 139 109 139 109 141 C109.66 141 110.32 141 111 141 C114 144.46153846 114 144.46153846 114 147 C114.598125 147.20625 115.19625 147.4125 115.8125 147.625 C119.01568719 149.63843195 119.72796751 151.43830904 121 155 C121.72137507 161.00496005 121.46183122 165.86693991 118 171 C115.525 173.475 115.525 173.475 113 176 C129.83 176.495 129.83 176.495 147 177 C147 177.66 147 178.32 147 179 C132.48 179 117.96 179 103 179 C103 178.34 103 177.68 103 177 C104.65 176.67 106.3 176.34 108 176 C108 175.34 108 174.68 108 174 C108.66 174 109.32 174 110 174 C109.82774253 169.60743452 109.66286651 167.6155189 106.375 164.5625 C105.83617187 164.16804687 105.29734375 163.77359375 104.7421875 163.3671875 C99.45940727 159.22150795 95.42146251 153.39110856 91.5546875 147.95703125 C89.55134833 145.43523998 87.29238462 143.26312013 85 141 C82.66604738 138.58254093 80.36309193 136.13667698 78.0625 133.6875 C77.46759766 133.06166016 76.87269531 132.43582031 76.25976562 131.79101562 C68.84272729 123.88761412 63.58108725 118.01657591 63.640625 106.80859375 C64.209823 102.36018761 65.96983275 100.24660777 69 97 C69.66 97 70.32 97 71 97 C71 96.34 71 95.68 71 95 C61.63787183 94.06378718 54.9910713 97.42840769 47.4453125 102.828125 C38.6382917 110.1228291 33.5943667 119.306459 32.22094727 130.63232422 C31.71791654 136.02281261 31.67351551 141.45640098 31.5703125 146.8671875 C31.31664419 154.49837582 29.9829321 160.91118866 25.3125 167.1875 C24.87550781 167.79980469 24.43851563 168.41210938 23.98828125 169.04296875 C22 171 22 171 14 176 C24.23 176.33 34.46 176.66 45 177 C45 177.66 45 178.32 45 179 C30.15 179 15.3 179 0 179 C0 178.34 0 177.68 0 177 C0.92232422 176.72736328 0.92232422 176.72736328 1.86328125 176.44921875 C3.07564453 176.07216797 3.07564453 176.07216797 4.3125 175.6875 C5.11300781 175.44386719 5.91351563 175.20023438 6.73828125 174.94921875 C9.15143168 173.93644577 10.37126886 173.02964958 12 171 C13.05060153 167.8481954 13.12725799 165.6381586 13.13130188 162.32911682 C13.13531006 161.14752487 13.13931824 159.96593292 13.14344788 158.74853516 C13.14291916 157.45036865 13.14239044 156.15220215 13.1418457 154.81469727 C13.14487771 153.43472685 13.14839929 152.05475745 13.15237427 150.67478943 C13.16026402 147.70044913 13.16540864 144.72612083 13.16866493 141.75177193 C13.17458266 137.03930636 13.19113301 132.32691604 13.21000671 127.61448669 C13.21634443 125.99947839 13.22267005 124.38447003 13.22898388 122.76946163 C13.23214969 121.96052358 13.2353155 121.15158552 13.23857725 120.31813419 C13.28059161 109.34857768 13.31359151 98.37905538 13.32592773 87.40942383 C13.33433508 80.00943321 13.35692819 72.60962828 13.3952834 65.20973057 C13.41496237 61.29804087 13.4274762 57.38662826 13.42244911 53.47488594 C13.41776766 49.78685351 13.43179614 46.09934414 13.45946121 42.41141701 C13.46955512 40.43137518 13.46017861 38.45126315 13.44996643 36.47122192 C13.55595742 26.21042977 15.13160991 16.39724867 22.14453125 8.5 C24.84677348 6.31545049 27.98301191 4.72399319 31 3 C16.15 2.505 16.15 2.505 1 2 C0.67 1.34 0.34 0.68 0 0 Z " fill="#FEFBFB" transform="translate(497,389)"/>
<path d="M0 0 C0.66 0 1.32 0 2 0 C2.34611328 0.90878906 2.34611328 0.90878906 2.69921875 1.8359375 C4.42715344 6.27529539 6.24261452 10.58248336 8.4375 14.8125 C10.84303551 19.5142285 12.68999768 24.32802261 14.53125 29.2734375 C16.58019705 34.61659683 19.0075602 39.80426212 21.40942383 44.99609375 C21.74482178 45.73214844 22.08021973 46.46820313 22.42578125 47.2265625 C22.88078003 48.21003662 22.88078003 48.21003662 23.3449707 49.21337891 C24 51 24 51 24 54 C24.66 54 25.32 54 26 54 C27.78702677 58.42264168 29.56792953 62.84417741 31.23828125 67.3125 C33.17060501 72.4813165 35.05927856 77.35030454 37.953125 82.046875 C40.80984542 87.37657727 44 93.90523288 44 100 C44.66 100 45.32 100 46 100 C49.67165176 107.08104269 52.67435932 114.31072034 55.375 121.8125 C56.68123447 125.33580271 58.22678405 128.71879977 59.8125 132.125 C60.58400391 133.79369141 60.58400391 133.79369141 61.37109375 135.49609375 C62.4745491 137.86971353 63.59220197 140.23677555 64.72265625 142.59765625 C68.58800766 150.99542918 70.18859497 157.05702517 68.375 166.125 C65.90285347 171.29403365 62.78935465 175.8070969 58 179 C74.335 179.495 74.335 179.495 91 180 C91 180.66 91 181.32 91 182 C76.15 182 61.3 182 46 182 C46 181.34 46 180.68 46 180 C46.928125 179.7525 47.85625 179.505 48.8125 179.25 C52.30076171 177.88205423 53.41170091 177.35307586 55 174 C55.67707113 168.19653321 54.77533117 164.93751793 51.95703125 159.8984375 C50.66561071 157.33668083 50.28354403 154.83544027 50 152 C49.34 152 48.68 152 48 152 C46.99600476 149.37646482 45.99665555 146.75132205 45 144.125 C44.71382812 143.37863281 44.42765625 142.63226562 44.1328125 141.86328125 C42 136.2265625 42 136.2265625 42 134 C41.34 134 40.68 134 40 134 C39.62875 132.9275 39.2575 131.855 38.875 130.75 C32.94487504 115.19376523 25.58111729 106.43377627 10.76953125 98.859375 C6.79743816 97.62684964 3.01312709 97.61687567 -1.125 97.625 C-1.9708667 97.62661133 -2.8167334 97.62822266 -3.68823242 97.62988281 C-13.04332628 97.81259599 -20.50304311 100.28803284 -28 106 C-28.804375 106.53625 -29.60875 107.0725 -30.4375 107.625 C-39.02632202 115.58537162 -42.93694919 124.67546532 -43.40014648 136.20507812 C-43.58492517 147.2483218 -41.40205503 155.83319686 -34.171875 164.44140625 C-33 166 -33 166 -33 168 C-32.15308594 168.40412109 -32.15308594 168.40412109 -31.2890625 168.81640625 C-28.88246577 170.06077282 -26.65641399 171.47724642 -24.375 172.9375 C-17.34214859 177.18414076 -10.11635441 179.11778756 -2 180 C-2 180.66 -2 181.32 -2 182 C-33.02 182 -64.04 182 -96 182 C-96.33 181.34 -96.66 180.68 -97 180 C-96.23816406 179.91363281 -95.47632813 179.82726562 -94.69140625 179.73828125 C-88.2779905 178.86554428 -83.33854216 177.57185979 -77.83984375 174.12109375 C-76 173 -76 173 -73 172 C-73 171.34 -73 170.68 -73 170 C-72.34 170 -71.68 170 -71 170 C-63.50326439 155.15139324 -57.3027442 139.79547629 -51.1484375 124.35546875 C-49.38823392 119.9490997 -47.59688839 115.55587552 -45.80078125 111.1640625 C-45.22587044 109.75652717 -44.65100112 108.34897489 -44.07617188 106.94140625 C-43.18877516 104.76848214 -42.30056779 102.59590696 -41.40991211 100.42431641 C-40.53770799 98.29690815 -39.66894109 96.16812378 -38.80078125 94.0390625 C-38.53413162 93.39111725 -38.26748199 92.743172 -37.99275208 92.07559204 C-36.77595817 89.08342226 -35.65975462 86.16741701 -35 83 C-34.34 83 -33.68 83 -33 83 C-32.82210937 81.95199219 -32.82210937 81.95199219 -32.640625 80.8828125 C-30.82380962 72.70714329 -27.03104308 64.92530958 -23.5234375 57.3515625 C-21.41685266 52.71707585 -19.39188562 48.04910398 -17.375 43.375 C-16.99053711 42.49199219 -16.60607422 41.60898437 -16.20996094 40.69921875 C-14.47775632 36.67195588 -12.84827707 32.67410076 -11.515625 28.49609375 C-9.86700796 23.37485782 -7.63859638 18.56153413 -5.375 13.6875 C-4.56721473 11.94283719 -3.76240629 10.19679225 -2.9609375 8.44921875 C-2.60821777 7.68955811 -2.25549805 6.92989746 -1.89208984 6.1472168 C-1.04534654 4.10914692 -0.47180669 2.1524273 0 0 Z " fill="#FDFBFB" transform="translate(393,386)"/>
<path d="M0 0 C0.66 0 1.32 0 2 0 C2.34611328 0.87398438 2.34611328 0.87398438 2.69921875 1.765625 C3.7922659 4.51336409 4.89431302 7.2573219 6 10 C6.59554687 11.47726562 6.59554687 11.47726562 7.203125 12.984375 C9.51886824 18.64182367 12.01959087 24.11656903 14.80859375 29.5546875 C16.42962899 32.88179589 17.75798714 36.2990355 19.08984375 39.75 C20.04246276 42.20678439 20.04246276 42.20678439 21.6875 45.25 C23.09225398 48.19329406 23.61606907 50.77498018 24 54 C24.66 54 25.32 54 26 54 C26.44730469 55.18335938 26.89460937 56.36671875 27.35546875 57.5859375 C30.24141184 65.1536284 33.11891402 72.59786205 36.8828125 79.78125 C39.27266378 84.52752807 41.05624279 89.54469669 42.9609375 94.5 C44.61399451 98.73182594 46.36884451 102.8281927 48.4375 106.875 C51.28792371 112.45343659 53.65365527 118.1950822 56 124 C56.59554687 125.44246094 56.59554687 125.44246094 57.203125 126.9140625 C57.56921875 127.80867187 57.9353125 128.70328125 58.3125 129.625 C58.63863281 130.42164063 58.96476563 131.21828125 59.30078125 132.0390625 C60 134 60 134 60 136 C60.66 136 61.32 136 62 136 C62.17015625 136.64066406 62.3403125 137.28132812 62.515625 137.94140625 C63.69134608 142.13772991 64.76689606 145.91005846 67.1875 149.5625 C69.80653867 154.52964231 69.82832096 158.7343893 68.45703125 164.140625 C66.29498586 170.39980613 63.35094075 174.98679444 58 179 C74.335 179.495 74.335 179.495 91 180 C91 180.66 91 181.32 91 182 C76.15 182 61.3 182 46 182 C46 181.34 46 180.68 46 180 C46.928125 179.7525 47.85625 179.505 48.8125 179.25 C52.30076171 177.88205423 53.41170091 177.35307586 55 174 C55.63842334 168.5277999 55.04821207 165.40156643 52.3359375 160.515625 C50.5609976 157.1733405 49.06619893 153.71985622 47.5625 150.25 C47.25973145 149.55447021 46.95696289 148.85894043 46.64501953 148.14233398 C44.41946385 143.01162265 42.26211569 137.85403163 40.12109375 132.6875 C37.70447287 126.89434611 35.25677683 121.37368177 32 116 C32 115.34 32 114.68 32 114 C31.34 114 30.68 114 30 114 C28.73828125 112.64453125 28.73828125 112.64453125 27.3125 110.8125 C21.50007309 103.81213182 14.08604196 99.20430379 5 98 C-9.80656249 97.06652354 -9.80656249 97.06652354 -23.140625 102.60546875 C-25 104 -25 104 -27 104 C-27 104.66 -27 105.32 -27 106 C-27.70125 106.37125 -28.4025 106.7425 -29.125 107.125 C-36.25197873 111.77302961 -41.19398351 120.76724457 -43 129 C-43.631149 139.43982531 -43.55298679 148.37890748 -39 158 C-38.32531869 159.66343841 -37.65645758 161.32928588 -37 163 C-36.34 163 -35.68 163 -35 163 C-34.00273838 164.17641042 -33.05255133 165.39287957 -32.125 166.625 C-25.72541022 174.19181055 -14.92961323 178.73367152 -5.125 179.625 C-4.34382812 179.69976563 -3.56265625 179.77453125 -2.7578125 179.8515625 C-1.88769531 179.92503906 -1.88769531 179.92503906 -1 180 C-1.33 180.66 -1.66 181.32 -2 182 C-33.02 182 -64.04 182 -96 182 C-96 181.34 -96 180.68 -96 180 C-95.154375 179.84144531 -94.30875 179.68289063 -93.4375 179.51953125 C-81.94692756 177.15612942 -75.03474512 173.45669022 -68 164 C-66.20500636 160.74540367 -64.8058029 157.38998969 -63.4375 153.9375 C-63.05529297 153.01066406 -62.67308594 152.08382812 -62.27929688 151.12890625 C-61.16920986 148.42576012 -60.0807007 145.71500709 -59 143 C-58.47005836 141.6783829 -57.94011119 140.35676802 -57.41015625 139.03515625 C-56.46234512 136.65906465 -55.51839367 134.28143014 -54.578125 131.90234375 C-52.71819725 127.25373213 -50.73190686 122.66011501 -48.75 118.0625 C-42.22519553 102.9218393 -35.84733831 87.72041361 -29.76953125 72.39453125 C-27.17405302 65.90664123 -24.48508464 59.45640604 -21.8125 53 C-21.54802063 52.36067535 -21.28354126 51.72135071 -21.01104736 51.06265259 C-16.20037077 39.43719328 -16.20037077 39.43719328 -14.27734375 35 C-13.01159759 32.02723838 -11.87051676 29.03012984 -10.75 26 C-8.54499903 20.19842732 -6.0281535 14.60622977 -3.32324219 9.02539062 C-1.89512103 6.05374457 -0.6162435 3.25149528 0 0 Z " fill="#FDFBFB" transform="translate(813,386)"/>
<path d="M0 0 C1.29481293 -0.00430527 1.29481293 -0.00430527 2.61578369 -0.00869751 C4.44145361 -0.01073697 6.26714544 -0.00521532 8.09277344 0.00732422 C10.86704345 0.02330169 13.63983929 0.00751245 16.4140625 -0.01171875 C18.19271152 -0.00973477 19.97135962 -0.0058879 21.75 0 C22.57111267 -0.00607269 23.39222534 -0.01214539 24.23822021 -0.0184021 C33.32342212 0.09072073 40.44268325 3.27142218 47.140625 9.3984375 C56.95974349 19.93377404 60.44456126 33.21310276 60.16723633 47.35327148 C59.69876829 58.10493392 56.53770125 67.71669116 50.140625 76.3984375 C49.645625 77.8834375 49.645625 77.8834375 49.140625 79.3984375 C47.109375 80.93359375 47.109375 80.93359375 44.640625 82.4609375 C41.30007375 84.38237317 41.30007375 84.38237317 39.140625 87.3984375 C34.0543129 89.55283084 28.81704616 90.07477186 23.390625 90.7734375 C10.97041068 92.54343559 2.48959034 95.67273652 -6.859375 104.3984375 C-7.354375 105.3884375 -7.354375 105.3884375 -7.859375 106.3984375 C-8.519375 106.3984375 -9.179375 106.3984375 -9.859375 106.3984375 C-10.1275 107.0790625 -10.395625 107.7596875 -10.671875 108.4609375 C-12.01990806 111.79554559 -13.43473798 115.09586987 -14.859375 118.3984375 C-15.189375 118.3984375 -15.519375 118.3984375 -15.859375 118.3984375 C-15.92951635 104.29026381 -15.98218867 90.18211723 -16.01481152 76.07380486 C-16.03046868 69.52277454 -16.05170824 62.97186135 -16.08569336 56.42089844 C-16.11828445 50.09910048 -16.13622764 43.77741519 -16.14400673 37.4555397 C-16.14955064 35.04339957 -16.16037645 32.63126561 -16.17656517 30.21917343 C-16.1983356 26.84112968 -16.20134202 23.46355181 -16.19995117 20.08544922 C-16.210737 19.08779037 -16.22152283 18.09013153 -16.2326355 17.0622406 C-16.20492521 10.84427456 -15.493782 6.3816318 -11.22558594 1.54833984 C-7.55470904 -0.23558816 -4.029418 -0.02950933 0 0 Z " fill="#F3C0C2" transform="translate(544.859375,390.6015625)"/>
<path d="M0 0 C0.86925078 0.00092179 1.73850157 0.00184359 2.63409328 0.00279331 C3.62833813 0.00141865 4.62258297 0.00004398 5.64695644 -0.00137234 C6.74674831 0.00222294 7.84654018 0.00581821 8.97965908 0.00952244 C10.70626011 0.0093034 10.70626011 0.0093034 12.46774197 0.00907993 C16.29326635 0.00977965 20.11874275 0.0175748 23.94425869 0.02539158 C26.58841837 0.02725555 29.2325784 0.02867955 31.87673855 0.0296793 C38.13825661 0.03279234 44.3997573 0.04100535 50.6612677 0.05102879 C57.78811781 0.06219078 64.91496874 0.06770059 72.04182541 0.07272422 C86.70592674 0.08318799 101.37001435 0.10078689 116.03410244 0.12304783 C116.03410244 0.78304783 116.03410244 1.44304783 116.03410244 2.12304783 C104.15410244 2.61804783 104.15410244 2.61804783 92.03410244 3.12304783 C93.35410244 4.11304783 94.67410244 5.10304783 96.03410244 6.12304783 C96.03410244 6.78304783 96.03410244 7.44304783 96.03410244 8.12304783 C96.69410244 8.12304783 97.35410244 8.12304783 98.03410244 8.12304783 C101.15174986 16.11201933 100.20053683 21.51305659 96.90910244 29.18164158 C96.62035244 29.82230564 96.33160244 30.4629697 96.03410244 31.12304783 C95.37410244 31.12304783 94.71410244 31.12304783 94.03410244 31.12304783 C93.80722744 31.76242283 93.58035244 32.40179783 93.34660244 33.06054783 C91.54844418 37.25625044 89.29506223 41.16205339 87.03410244 45.12304783 C86.37410244 45.12304783 85.71410244 45.12304783 85.03410244 45.12304783 C84.75566494 45.69539158 84.47722744 46.26773533 84.19035244 46.85742283 C83.05136452 49.08922349 81.83473861 51.23175657 80.53410244 53.37304783 C80.11128994 54.07945408 79.68847744 54.78586033 79.25285244 55.51367283 C78.64957119 56.31031345 78.64957119 56.31031345 78.03410244 57.12304783 C77.37410244 57.12304783 76.71410244 57.12304783 76.03410244 57.12304783 C75.79562588 57.98800877 75.55714931 58.8529697 75.31144619 59.74414158 C73.8943623 63.49269682 72.06765828 66.04093654 69.59660244 69.18554783 C66.8219863 72.73723933 64.3100273 76.23527817 62.03410244 80.12304783 C60.75802403 81.93021089 59.44347734 83.70200629 58.12003994 85.47461033 C56.848199 87.25106076 56.848199 87.25106076 56.03410244 90.12304783 C55.37410244 90.12304783 54.71410244 90.12304783 54.03410244 90.12304783 C53.74535244 90.84492283 53.45660244 91.56679783 53.15910244 92.31054783 C52.78785244 93.23867283 52.41660244 94.16679783 52.03410244 95.12304783 C51.76597744 95.94804783 51.49785244 96.77304783 51.22160244 97.62304783 C50.03410244 100.12304783 50.03410244 100.12304783 47.78410244 102.31054783 C44.56372591 105.60411474 42.58545776 109.10014969 40.36613369 113.11132908 C39.92656338 113.77519627 39.48699306 114.43906345 39.03410244 115.12304783 C38.37410244 115.12304783 37.71410244 115.12304783 37.03410244 115.12304783 C36.80078213 115.8010947 36.56746181 116.47914158 36.32707119 117.17773533 C34.71766689 120.84387081 32.60649094 123.95558418 30.34660244 127.24804783 C29.439465 128.58859357 28.53321983 129.92974351 27.62785244 131.27148533 C27.18441494 131.92729588 26.74097744 132.58310642 26.28410244 133.25879002 C24.59881465 135.77223876 22.96693856 138.31733586 21.34660244 140.87304783 C20.80261806 141.73027439 20.25863369 142.58750095 19.69816494 143.47070408 C18.49489262 145.38859588 17.30368527 147.31407501 16.12003994 149.24414158 C15.49355556 150.25605564 14.86707119 151.2679697 14.22160244 152.31054783 C13.65828213 153.23222752 13.09496181 154.1539072 12.51457119 155.10351658 C12.0260165 155.76996189 11.53746181 156.4364072 11.03410244 157.12304783 C10.37410244 157.12304783 9.71410244 157.12304783 9.03410244 157.12304783 C8.37410244 159.10304783 7.71410244 161.08304783 7.03410244 163.12304783 C6.37410244 163.12304783 5.71410244 163.12304783 5.03410244 163.12304783 C2.70792259 166.75770385 2.72005557 169.88341502 3.03410244 174.12304783 C5.64985033 176.73879572 6.77748792 176.38083137 10.4232626 176.39770603 C11.55269283 176.40723804 12.68212307 176.41677006 13.84577847 176.42659092 C15.075816 176.42567951 16.30585354 176.4247681 17.57316494 176.42382908 C19.47634991 176.43025677 19.47634991 176.43025677 21.41798306 176.43681431 C24.11665937 176.44257245 26.81495545 176.44397903 29.51359463 176.43872166 C32.25237024 176.43413059 34.99069778 176.44084439 37.72941494 176.45922947 C70.43641384 177.15842748 70.43641384 177.15842748 99.03410244 163.12304783 C98.42385604 167.27272332 97.02677637 170.44426519 95.03410244 174.12304783 C94.73412853 174.99821552 94.43415462 175.87338322 94.1250906 176.77507114 C92.03410244 179.12304783 92.03410244 179.12304783 89.89453983 179.57253551 C86.9030273 179.74304658 83.94940347 179.7403948 80.95329189 179.69067478 C79.81168606 179.69140491 78.67008022 179.69213505 77.49388027 179.69288731 C73.71123551 179.68939706 69.92981399 179.65046503 66.14738369 179.61132908 C63.52850931 179.60200614 60.90962622 179.59488759 58.29074001 179.58989048 C52.09637557 179.57434496 45.90245195 179.53330765 39.7082817 179.48314303 C32.65641348 179.42727099 25.6045243 179.39976858 18.55248988 179.37466586 C4.04613325 179.32239193 -10.45987599 179.23443632 -24.96589756 179.12304783 C-24.63589756 178.13304783 -24.30589756 177.14304783 -23.96589756 176.12304783 C-16.70589756 176.12304783 -9.44589756 176.12304783 -1.96589756 176.12304783 C-2.95589756 175.13304783 -3.94589756 174.14304783 -4.96589756 173.12304783 C-4.96589756 172.46304783 -4.96589756 171.80304783 -4.96589756 171.12304783 C-5.62589756 171.12304783 -6.28589756 171.12304783 -6.96589756 171.12304783 C-9.66012409 164.72425981 -9.92926426 158.37441043 -7.96589756 151.74804783 C-5.77602545 147.34764443 -2.86876558 143.32705423 -0.09871006 139.27929783 C2.59132928 135.29843375 5.09506423 131.2133712 7.58878994 127.10742283 C8.30421963 126.1251572 8.30421963 126.1251572 9.03410244 125.12304783 C9.69410244 125.12304783 10.35410244 125.12304783 11.03410244 125.12304783 C11.36087978 124.13304783 11.36087978 124.13304783 11.69425869 123.12304783 C13.48909986 119.10427809 15.93578531 115.70691454 18.47160244 112.12304783 C19.4508418 110.72817862 20.42874046 109.33236709 21.40519619 107.93554783 C21.86394131 107.28199314 22.32268642 106.62843845 22.79533291 105.95507908 C23.8534981 104.39014577 24.81605481 102.76128043 25.75675869 101.12304783 C26.38904385 100.13304783 26.38904385 100.13304783 27.03410244 99.12304783 C27.69410244 99.12304783 28.35410244 99.12304783 29.03410244 99.12304783 C29.29836025 98.40504002 29.56261806 97.6870322 29.83488369 96.94726658 C33.48195696 88.35823082 39.66123461 80.70761593 45.03410244 73.12304783 C50.48499897 65.40505148 55.63134813 57.65906276 60.40519619 49.50976658 C60.94273525 48.72214939 61.48027431 47.9345322 62.03410244 47.12304783 C62.69410244 47.12304783 63.35410244 47.12304783 64.03410244 47.12304783 C64.32285244 46.35992283 64.61160244 45.59679783 64.90910244 44.81054783 C66.03410244 42.12304783 66.03410244 42.12304783 68.03410244 39.12304783 C68.69410244 39.12304783 69.35410244 39.12304783 70.03410244 39.12304783 C70.12949306 38.57519627 70.22488369 38.0273447 70.32316494 37.46289158 C71.22615727 34.49095529 72.70410437 32.27901536 74.40910244 29.68554783 C76.22439935 26.90852979 78.00894899 24.1677719 79.63566494 21.27539158 C80.09714931 20.56511814 80.55863369 19.8548447 81.03410244 19.12304783 C81.69410244 19.12304783 82.35410244 19.12304783 83.03410244 19.12304783 C83.32285244 18.35992283 83.61160244 17.59679783 83.90910244 16.81054783 C85.03410244 14.12304783 85.03410244 14.12304783 87.03410244 11.12304783 C87.11315308 8.79105395 87.12209013 6.45472161 87.03410244 4.12304783 C83.91491294 3.083318 81.71253031 2.98401991 78.43962002 2.96191502 C77.29024456 2.95230747 76.1408691 2.94269993 74.95666409 2.93280125 C73.70991405 2.92855137 72.46316402 2.92430149 71.17863369 2.91992283 C69.88906261 2.91422276 68.59949154 2.90852268 67.27084255 2.90264988 C64.53119928 2.89213729 61.7915853 2.88629929 59.05192471 2.88281345 C56.27151546 2.87845987 53.49142196 2.8646933 50.71110439 2.84179783 C21.79364632 1.2108496 21.79364632 1.2108496 -3.83308506 11.93554783 C-5.46493821 13.8231514 -5.46493821 13.8231514 -6.80964756 15.73242283 C-7.19121006 16.19132908 -7.57277256 16.65023533 -7.96589756 17.12304783 C-8.62589756 17.12304783 -9.28589756 17.12304783 -9.96589756 17.12304783 C-9.96589756 16.13304783 -9.96589756 15.14304783 -9.96589756 14.12304783 C-9.30589756 14.12304783 -8.64589756 14.12304783 -7.96589756 14.12304783 C-7.88339756 13.46304783 -7.80089756 12.80304783 -7.71589756 12.12304783 C-6.72657257 8.16574788 -4.72898992 0.29599301 0 0 Z " fill="#FDFBFA" transform="translate(175.96589756011963,388.8769521713257)"/>
<path d="M0 0 C2.16426674 2.72274973 3.74854067 5.34257518 5.15625 8.51953125 C5.53910156 9.37740234 5.92195312 10.23527344 6.31640625 11.11914062 C6.70699219 12.00794922 7.09757813 12.89675781 7.5 13.8125 C7.89058594 14.68970703 8.28117188 15.56691406 8.68359375 16.47070312 C9.79709827 18.97702558 10.90117502 21.48721141 12 24 C12.2798877 24.639375 12.55977539 25.27875 12.84814453 25.9375 C14.62826853 30.04459101 16.25656179 34.20205392 17.875 38.375 C19.5723409 42.71205741 21.36355845 46.86464852 23.75 50.875 C26.27006639 55.12913137 27.15212049 59.14396281 28 64 C28.66 64 29.32 64 30 64 C30.24234375 64.68964844 30.4846875 65.37929688 30.734375 66.08984375 C32.70227782 71.6075405 34.79987602 76.95290498 37.36328125 82.22265625 C37.67845703 83.10244141 37.67845703 83.10244141 38 84 C37.67 84.66 37.34 85.32 37 86 C36.01 84.9171875 36.01 84.9171875 35 83.8125 C26.80270776 75.75182929 15.91346949 71.90023049 4.5 71.5 C-5.17674938 71.85103081 -14.01551455 74.349625 -21.4140625 80.73046875 C-23 82 -23 82 -26 83 C-26 83.66 -26 84.32 -26 85 C-26.66 85 -27.32 85 -28 85 C-28.29003906 85.58394531 -28.58007812 86.16789062 -28.87890625 86.76953125 C-29.56149116 88.12756604 -30.25421698 89.48064506 -30.96484375 90.82421875 C-32.02805724 92.86097713 -33.02369614 94.92021092 -34 97 C-34.30550781 97.63421875 -34.61101563 98.2684375 -34.92578125 98.921875 C-38.8617409 108.54725499 -38.36035618 120.40469046 -34.875 130.0625 C-29.45244979 142.225371 -21.0375847 149.52837059 -9 155 C-9 155.33 -9 155.66 -9 156 C-30.78 156 -52.56 156 -75 156 C-71.84515168 153.47612135 -69.07163963 151.31489876 -65.6875 149.25 C-64.99011719 148.82203125 -64.29273438 148.3940625 -63.57421875 147.953125 C-63.05472656 147.63859375 -62.53523437 147.3240625 -62 147 C-62 147.99 -62 148.98 -62 150 C-61.63874023 149.12190674 -61.27748047 148.24381348 -60.90527344 147.33911133 C-54.61631779 132.05410214 -48.32448669 116.77034921 -42 101.5 C-37.83916638 91.45086264 -33.68420229 81.39932833 -29.53955078 71.34350586 C-28.94282019 69.89596424 -28.34582716 68.44853076 -27.74853516 67.0012207 C-24.2200226 58.45027705 -20.7368216 49.88337367 -17.31762695 41.28808594 C-15.70135522 37.25474376 -14.03235139 33.2450651 -12.3515625 29.23828125 C-11.31708219 26.75971427 -10.2915821 24.27824304 -9.2734375 21.79296875 C-6.27854862 14.48252818 -3.26966119 7.19325463 0 0 Z " fill="#F2C1C2" transform="translate(805,410)"/>
<path d="M0 0 C2.80489323 1.40244661 3.12033022 3.08852054 4.375 5.9375 C4.8184375 6.94039063 5.261875 7.94328125 5.71875 8.9765625 C6.81932527 11.57365172 7.86083806 14.18092463 8.875 16.8125 C10.51324097 21.00133564 12.45829395 24.9965601 14.5 29 C16.90011196 33.71126079 19.09665036 38.42931766 20.98193359 43.37133789 C23.74939609 50.51696589 26.77448621 57.55303479 29.9296875 64.53515625 C30.414375 65.61087891 30.8990625 66.68660156 31.3984375 67.79492188 C32.39998345 70.01130597 33.40801491 72.22476863 34.421875 74.43554688 C34.89882813 75.49966797 35.37578125 76.56378906 35.8671875 77.66015625 C36.30144043 78.61543213 36.73569336 79.57070801 37.18310547 80.55493164 C38 83 38 83 37 86 C35.62437146 84.71034824 34.29233607 83.37310707 33 82 C33 81.34 33 80.68 33 80 C32.01 79.62875 32.01 79.62875 31 79.25 C27.98076647 77.99198603 25.13874304 76.54292514 22.2578125 75 C13.16405313 70.97231419 1.87453491 70.40990674 -7.8203125 72.65234375 C-10.06493357 73.58961384 -11.97009181 74.66120841 -14 76 C-14.82757813 76.50917969 -15.65515625 77.01835937 -16.5078125 77.54296875 C-27.36028668 84.62137355 -32.68824219 92.62175261 -36.61328125 104.921875 C-38.90352537 117.2290454 -36.56291215 128.98445597 -29.6875 139.375 C-23.92944799 146.99953921 -17.65183041 151.06576726 -9 155 C-9 155.33 -9 155.66 -9 156 C-30.78 156 -52.56 156 -75 156 C-72.11632098 153.83724074 -69.25026023 151.79796633 -66.25 149.8125 C-65.45078125 149.28269531 -64.6515625 148.75289062 -63.828125 148.20703125 C-63.22484375 147.80871094 -62.6215625 147.41039062 -62 147 C-62.66 148.98 -63.32 150.96 -64 153 C-63.34 153 -62.68 153 -62 153 C-61.87866699 152.28730957 -61.75733398 151.57461914 -61.63232422 150.84033203 C-60.97794865 147.90094773 -60.03232212 145.33647197 -58.8828125 142.5546875 C-58.22792847 140.95947266 -58.22792847 140.95947266 -57.55981445 139.33203125 C-57.08632568 138.19121094 -56.61283691 137.05039062 -56.125 135.875 C-55.37728679 134.05794738 -54.62958099 132.24089167 -53.88233948 130.42364502 C-53.10591823 128.53679396 -52.32764624 126.65071288 -51.54931641 124.76464844 C-49.58111074 119.98931465 -47.6409203 115.20266338 -45.69921875 110.41650391 C-33.28661156 79.83516148 -33.28661156 79.83516148 -28.375 69.3125 C-26.0710774 64.34128446 -24.16385641 59.25038351 -22.31787109 54.0949707 C-20.91631671 50.23649841 -19.34440874 46.50597564 -17.625 42.77734375 C-14.86629356 36.78810122 -12.41847101 30.69559133 -10 24.5625 C-6.74579525 16.34054831 -3.42723237 8.15152634 0 0 Z " fill="#F2C1C3" transform="translate(385,410)"/>
<path d="M0 0 C14.85 0 29.7 0 45 0 C45 0.66 45 1.32 45 2 C43.9275 2.226875 42.855 2.45375 41.75 2.6875 C37.58706094 4.14452867 36.49088535 5.49430951 34 9 C33.34 9 32.68 9 32 9 C32.00276538 9.71046101 32.00553076 10.42092201 32.00837994 11.15291214 C32.07478387 28.48173711 32.12435046 45.81052954 32.15543652 63.13945389 C32.17087108 71.51977371 32.19189496 79.90000832 32.22631836 88.28027344 C32.25632561 95.58895769 32.27559976 102.89758019 32.28226548 110.20632434 C32.28615866 114.07223074 32.29523604 117.93796059 32.31719017 121.80381012 C32.33773484 125.45144029 32.34379801 129.09882319 32.33932304 132.74650574 C32.34052642 134.70516129 32.35657359 136.66379065 32.3732605 138.62237549 C32.34021829 148.19275426 31.64486935 158.49044483 25.75 166.4375 C25.20859375 167.19933594 24.6671875 167.96117187 24.109375 168.74609375 C22 171 22 171 15 176 C24.9 176.33 34.8 176.66 45 177 C45 177.66 45 178.32 45 179 C30.15 179 15.3 179 0 179 C0 178.34 0 177.68 0 177 C0.92232422 176.72736328 0.92232422 176.72736328 1.86328125 176.44921875 C3.07564453 176.07216797 3.07564453 176.07216797 4.3125 175.6875 C5.11300781 175.44386719 5.91351562 175.20023438 6.73828125 174.94921875 C9.15143168 173.93644577 10.37126886 173.02964958 12 171 C13.04762692 167.85711925 13.12979591 165.65278522 13.13803101 162.35362244 C13.14348434 161.17755432 13.14893768 160.00148621 13.15455627 158.78977966 C13.1555986 157.49782181 13.15664093 156.20586395 13.15771484 154.87475586 C13.16238387 153.50139198 13.16752758 152.12802965 13.17311096 150.75466919 C13.18439112 147.79506005 13.19282592 144.83546097 13.19923019 141.87583733 C13.20992068 137.18912394 13.23017054 132.5024825 13.25234985 127.81581116 C13.31423167 114.4876741 13.36820794 101.15954055 13.40136719 87.83129883 C13.41975757 80.4716367 13.44875205 73.11209451 13.4893719 65.75252062 C13.51037463 61.86106002 13.5258895 57.96975015 13.52817917 54.0782299 C13.53033893 50.41161701 13.54634221 46.74531745 13.57256889 43.0788002 C13.5830984 41.1055349 13.57902897 39.13220822 13.5743866 37.15892029 C13.67571447 26.23593192 15.31056014 17.5647383 22.625 9.125 C24 8 24 8 26 8 C26 7.34 26 6.68 26 6 C27.65 5.01 29.3 4.02 31 3 C16.15 2.505 16.15 2.505 1 2 C0.67 1.34 0.34 0.68 0 0 Z " fill="#FEFBFA" transform="translate(659,389)"/>
<path d="M0 0 C0.99 0.99 0.99 0.99 2 2 C1.47212891 3.25151855 1.47212891 3.25151855 0.93359375 4.52832031 C-7.24284408 23.85995509 -7.24284408 23.85995509 -15.125 43.3125 C-18.03422441 50.674056 -21.08495652 57.96789272 -24.1875 65.25 C-28.41218116 75.16929958 -32.51947846 85.13074924 -36.5625 95.125 C-41.58492496 107.53728013 -46.67446879 119.9185136 -51.85791016 132.26464844 C-53.02496541 135.05979316 -54.1761314 137.86107884 -55.32421875 140.6640625 C-55.87565552 142.00053833 -55.87565552 142.00053833 -56.43823242 143.36401367 C-57.12719806 145.03391175 -57.81125525 146.70584661 -58.48950195 148.38012695 C-60.77418352 153.88709176 -60.77418352 153.88709176 -63 155 C-62.67 153.35 -62.34 151.7 -62 150 C-65.3 152.31 -68.6 154.62 -72 157 C-51.54 157 -31.08 157 -10 157 C-14.455 154.525 -14.455 154.525 -19 152 C-28.58500747 145.16855145 -33.87200593 136.26358401 -37 125 C-38.24879491 112.17027541 -36.67581235 100.58231005 -29.3125 89.625 C-28.549375 88.75875 -27.78625 87.8925 -27 87 C-26.34 87 -25.68 87 -25 87 C-25 86.34 -25 85.68 -25 85 C-15.27162561 75.94433235 -4.19842619 72.61451558 8.85546875 72.796875 C12.81289327 73.05250988 16.22368436 73.81527353 20 75 C20 75.33 20 75.66 20 76 C19.38592285 75.98428955 18.7718457 75.9685791 18.13916016 75.95239258 C15.30120411 75.88923806 12.46339667 75.85075823 9.625 75.8125 C8.65949219 75.78736328 7.69398438 75.76222656 6.69921875 75.73632812 C-1.88556585 75.64990412 -9.0709571 76.75225547 -16 82 C-16.66 82 -17.32 82 -18 82 C-18 82.66 -18 83.32 -18 84 C-18.70125 84.37125 -19.4025 84.7425 -20.125 85.125 C-27.25197873 89.77302961 -32.19398351 98.76724457 -34 107 C-34.631149 117.43982531 -34.55298679 126.37890748 -30 136 C-29.32531869 137.66343841 -28.65645758 139.32928588 -28 141 C-27.34 141 -26.68 141 -26 141 C-25.00273838 142.17641042 -24.05255133 143.39287957 -23.125 144.625 C-16.72541022 152.19181055 -5.92961323 156.73367152 3.875 157.625 C4.65617188 157.69976563 5.43734375 157.77453125 6.2421875 157.8515625 C7.11230469 157.92503906 7.11230469 157.92503906 8 158 C7.67 158.66 7.34 159.32 7 160 C-24.02 160 -55.04 160 -87 160 C-87 159.34 -87 158.68 -87 158 C-86.154375 157.84144531 -85.30875 157.68289063 -84.4375 157.51953125 C-72.94692756 155.15612942 -66.03474512 151.45669022 -59 142 C-57.20500636 138.74540367 -55.8058029 135.38998969 -54.4375 131.9375 C-54.05529297 131.01066406 -53.67308594 130.08382812 -53.27929688 129.12890625 C-52.16920986 126.42576012 -51.0807007 123.71500709 -50 121 C-49.47005836 119.6783829 -48.94011119 118.35676802 -48.41015625 117.03515625 C-47.46234512 114.65906465 -46.51839367 112.28143014 -45.578125 109.90234375 C-43.71819725 105.25373213 -41.73190686 100.66011501 -39.75 96.0625 C-33.22519553 80.9218393 -26.84733831 65.72041361 -20.76953125 50.39453125 C-18.17405302 43.90664123 -15.48508464 37.45640604 -12.8125 31 C-12.54802063 30.36067535 -12.28354126 29.72135071 -12.01104736 29.06265259 C-7.22519199 17.49717613 -7.22519199 17.49717613 -5.2734375 12.96484375 C-4.07700867 10.1792932 -2.93171278 7.37982872 -1.8125 4.5625 C-1.29623047 3.26505859 -1.29623047 3.26505859 -0.76953125 1.94140625 C-0.51558594 1.30074219 -0.26164063 0.66007812 0 0 Z " fill="#FEE6E5" transform="translate(804,408)"/>
<path d="M0 0 C5.59245404 2.91818085 5.59245404 2.91818085 8 5 C8 5.66 8 6.32 8 7 C8.99 7.33 9.98 7.66 11 8 C13 10 13 10 13 13 C12.05125 12.13375 11.1025 11.2675 10.125 10.375 C1.55256893 3.02222376 -6.82049995 -1.39719397 -18.125 -1.375 C-18.9708667 -1.37338867 -19.8167334 -1.37177734 -20.68823242 -1.37011719 C-30.04332628 -1.18740401 -37.50304311 1.28803284 -45 7 C-45.804375 7.53625 -46.60875 8.0725 -47.4375 8.625 C-56.02632202 16.58537162 -59.93694919 25.67546532 -60.40014648 37.20507812 C-60.58492517 48.2483218 -58.40205503 56.83319686 -51.171875 65.44140625 C-50 67 -50 67 -50 69 C-49.43539062 69.26941406 -48.87078125 69.53882813 -48.2890625 69.81640625 C-45.88246577 71.06077282 -43.65641399 72.47724642 -41.375 73.9375 C-34.34214859 78.18414076 -27.11635441 80.11778756 -19 81 C-19 81.66 -19 82.32 -19 83 C-50.02 83 -81.04 83 -113 83 C-113.33 82.34 -113.66 81.68 -114 81 C-113.23816406 80.91363281 -112.47632813 80.82726562 -111.69140625 80.73828125 C-105.2779905 79.86554428 -100.33854216 78.57185979 -94.83984375 75.12109375 C-93 74 -93 74 -90 73 C-90 72.34 -90 71.68 -90 71 C-89.34 71 -88.68 71 -88 71 C-86.12298388 67.31101288 -84.37348165 63.56352419 -82.625 59.8125 C-82.31554443 59.14919678 -82.00608887 58.48589355 -81.68725586 57.80249023 C-79.40221819 52.89231904 -77.17538558 47.95987912 -75 43 C-73.64073146 47.07780563 -75.15138389 49.52279474 -76.74609375 53.29296875 C-77.03605728 53.99899734 -77.32602081 54.70502594 -77.62477112 55.43244934 C-78.5534801 57.68791664 -79.49528255 59.93764693 -80.4375 62.1875 C-81.06922896 63.71513548 -81.70009921 65.24312637 -82.33007812 66.77148438 C-83.87678256 70.51852061 -85.4352523 74.26046467 -87 78 C-87.66 78 -88.32 78 -89 78 C-88.67 76.35 -88.34 74.7 -88 73 C-88.55429687 73.42152344 -89.10859375 73.84304688 -89.6796875 74.27734375 C-90.40414063 74.82519531 -91.12859375 75.37304688 -91.875 75.9375 C-92.59429687 76.48277344 -93.31359375 77.02804687 -94.0546875 77.58984375 C-96 79 -96 79 -98 80 C-77.54 80 -57.08 80 -36 80 C-38.64 78.68 -41.28 77.36 -44 76 C-53.86251375 68.81964297 -60.96206734 59.17706873 -63 47 C-64.12065678 34.4514111 -62.21001006 23.42946119 -54.7578125 13.09375 C-49.23501824 6.51548839 -42.75322172 1.65023942 -35 -2 C-33.89591797 -2.54914063 -33.89591797 -2.54914063 -32.76953125 -3.109375 C-22.46578741 -6.42284975 -9.56440952 -4.52056438 0 0 Z " fill="#FDE6E5" transform="translate(410,485)"/>
<path d="M0 0 C1 3 1 3 0.328125 4.8671875 C-0.02765625 5.52976562 -0.3834375 6.19234375 -0.75 6.875 C-1.09546875 7.53242187 -1.4409375 8.18984375 -1.796875 8.8671875 C-2.39242187 9.92292969 -2.39242187 9.92292969 -3 11 C-3.29127274 11.85728195 -3.58254547 12.7145639 -3.88264465 13.5978241 C-6 16 -6 16 -8.14121056 16.45287514 C-11.13184632 16.61963517 -14.0857807 16.61732902 -17.08081055 16.56762695 C-18.22241638 16.56835709 -19.36402222 16.56908722 -20.54022217 16.56983948 C-24.32286693 16.56634924 -28.10428845 16.5274172 -31.88671875 16.48828125 C-34.50559313 16.47895832 -37.12447622 16.47183976 -39.74336243 16.46684265 C-45.93772687 16.45129714 -52.13165049 16.41025982 -58.32582074 16.3600952 C-65.37768896 16.30422316 -72.42957814 16.27672075 -79.48161256 16.25161803 C-93.98796919 16.1993441 -108.49397843 16.11138849 -123 16 C-122.67 15.01 -122.34 14.02 -122 13 C-113.75 13 -105.5 13 -97 13 C-97 13.66 -97 14.32 -97 15 C-95.93692375 14.7573793 -95.93692375 14.7573793 -94.85237122 14.50985718 C-91.95999949 13.99284997 -89.29819921 13.86192692 -86.36206055 13.84228516 C-85.25287766 13.83202301 -84.14369476 13.82176086 -83.00090027 13.81118774 C-81.80822037 13.80388641 -80.61554047 13.79658508 -79.38671875 13.7890625 C-76.83267617 13.76096755 -74.27863981 13.73230295 -71.72460938 13.703125 C-67.7206416 13.66099449 -63.71675369 13.62519405 -59.71264648 13.59863281 C-27.55186068 14.24685203 -27.55186068 14.24685203 0 0 Z " fill="#FCEDEC" transform="translate(274,552)"/>
<path d="M0 0 C0.99 0.33 1.98 0.66 3 1 C1.1875 3 1.1875 3 -1 5 C-1.99 5 -2.98 5 -4 5 C-4 5.99 -4 6.98 -4 8 C-4.99 8.495 -4.99 8.495 -6 9 C-5.99907821 9.64400725 -5.99815641 10.28801451 -5.99720669 10.95153713 C-5.9750228 26.69654796 -5.95852615 42.44155326 -5.94818783 58.18657589 C-5.9430541 65.80106611 -5.93606781 73.41554582 -5.92456055 81.0300293 C-5.91452366 87.67477872 -5.90812537 94.31952053 -5.90591151 100.96427733 C-5.90461953 104.47536479 -5.9016314 107.98643049 -5.89426994 111.49751091 C-5.86560475 125.69844625 -5.86040408 139.83681988 -7 154 C-7.66 154 -8.32 154 -9 154 C-9.33 156.64 -9.66 159.28 -10 162 C-10.66 161.67 -11.32 161.34 -12 161 C-11.7884537 160.15691221 -11.57690741 159.31382442 -11.35895061 158.44518852 C-9.2992701 149.67436399 -8.55734435 141.57832961 -8.56762695 132.55908203 C-8.55858079 131.17771546 -8.54824674 129.79635683 -8.53674316 128.41500854 C-8.50948127 124.71345425 -8.49993129 121.01205347 -8.49388909 117.31041193 C-8.48442395 113.42399321 -8.45821493 109.53768562 -8.43388367 105.65133667 C-8.39043662 98.31363685 -8.36175652 90.97595887 -8.33856028 83.63817012 C-8.31139081 75.27518285 -8.26748724 66.9123086 -8.22227156 58.54940248 C-8.12973797 41.36632677 -8.05791505 24.18322658 -8 7 C-7.34 7 -6.68 7 -6 7 C-5.7525 6.401875 -5.505 5.80375 -5.25 5.1875 C-3.80517427 2.65905497 -2.51719455 1.44929383 0 0 Z " fill="#EAC7C8" transform="translate(699,391)"/>
<path d="M0 0 C0.83574051 -0.0049649 1.67148102 -0.00992981 2.532547 -0.01504517 C5.30954803 -0.02970397 8.08649196 -0.03647455 10.86352539 -0.04199219 C12.7854462 -0.04774009 14.70736697 -0.05349786 16.62928772 -0.05926514 C20.6636685 -0.06978539 24.69802929 -0.0756215 28.73242188 -0.07910156 C33.91246548 -0.0845918 39.09224695 -0.10862681 44.27220821 -0.13707352 C48.2432178 -0.15565781 52.21416368 -0.16090322 56.18521309 -0.16243744 C58.09546913 -0.16547348 60.00572381 -0.1735338 61.91593742 -0.18662262 C64.58348666 -0.20359737 67.25038806 -0.20182423 69.91796875 -0.1953125 C70.71337067 -0.20452728 71.50877258 -0.21374207 72.32827759 -0.22323608 C74.52500916 -0.20635986 74.52500916 -0.20635986 78.02368164 0.16113281 C79.01368164 1.64613281 79.01368164 1.64613281 80.02368164 3.16113281 C78.91186523 3.15114006 78.91186523 3.15114006 77.77758789 3.14094543 C70.71885304 3.08029793 63.66021166 3.03489016 56.60128784 3.0056963 C52.9740671 2.99018183 49.34706542 2.96921163 45.7199707 2.93481445 C16.14696157 1.11700854 16.14696157 1.11700854 -9.84350586 11.97363281 C-11.47535901 13.86123639 -11.47535901 13.86123639 -12.82006836 15.77050781 C-13.20163086 16.22941406 -13.58319336 16.68832031 -13.97631836 17.16113281 C-14.63631836 17.16113281 -15.29631836 17.16113281 -15.97631836 17.16113281 C-15.97631836 16.17113281 -15.97631836 15.18113281 -15.97631836 14.16113281 C-15.31631836 14.16113281 -14.65631836 14.16113281 -13.97631836 14.16113281 C-13.89381836 13.50113281 -13.81131836 12.84113281 -13.72631836 12.16113281 C-11.44890324 3.05147235 -9.23761816 0.0129496 0 0 Z " fill="#FEF0EF" transform="translate(181.976318359375,388.8388671875)"/>
<path d="M0 0 C1.2380014 3.57644848 0.74926071 6.33694766 0 10 C-0.99 10 -1.98 10 -3 10 C-2.67 11.32 -2.34 12.64 -2 14 C-0.68 14 0.64 14 2 14 C0.25 17.875 0.25 17.875 -2 19 C-8.10397596 19.50866466 -11.10769166 19.05703618 -16 15 C-17.75136273 11.49727453 -16.96832792 7.70204278 -16 4 C-10.96694277 -1.44114295 -6.97968205 -1.20802189 0 0 Z " fill="#F0C2C4" transform="translate(371,599)"/>
<path d="M0 0 C0.93542819 2.80628456 1.12368604 4.48529632 1.12025452 7.38493347 C1.12162918 8.28095779 1.12300385 9.17698212 1.12442017 10.10015869 C1.12082489 11.08055115 1.11722961 12.0609436 1.11352539 13.07104492 C1.11367142 14.10536148 1.11381744 15.13967804 1.1139679 16.20533752 C1.1132702 19.63040246 1.10548446 23.05541329 1.09765625 26.48046875 C1.09579156 28.85272695 1.0943679 31.22498554 1.09336853 33.59724426 C1.08954736 39.84602926 1.07972045 46.09479107 1.06866455 52.34356689 C1.05844186 58.7179737 1.05386907 65.09238424 1.04882812 71.46679688 C1.03809786 83.97787478 1.0210262 96.48893546 1 109 C2.65 106.03 4.3 103.06 6 100 C6.66 100 7.32 100 8 100 C8.24105469 99.4225 8.48210938 98.845 8.73046875 98.25 C12.42862652 91.69572654 19.58776437 87.78520607 26.5 85.4375 C32.25869349 83.8731574 37.17655469 83.79061632 43 85 C42.34 85.99 41.68 86.98 41 88 C40.01 87.505 40.01 87.505 39 87 C29.68106752 85.94786246 22.94368074 89.4623202 15.4453125 94.828125 C8.37264517 100.6862939 3.35249938 108.06050237 1 117 C0.34 116.67 -0.32 116.34 -1 116 C-1.02333939 101.17079124 -1.0409843 86.34158491 -1.05181217 71.51236153 C-1.05697291 64.62721264 -1.0640114 57.74207516 -1.07543945 50.85693359 C-1.08645452 44.21745707 -1.09227774 37.57798931 -1.09487724 30.93850327 C-1.09673073 28.40026538 -1.10034988 25.86202818 -1.10573006 23.32379532 C-1.11294606 19.7798139 -1.1139907 16.23588206 -1.11352539 12.69189453 C-1.11712067 11.63310089 -1.12071594 10.57430725 -1.12442017 9.48342896 C-1.1230455 8.52146606 -1.12167084 7.55950317 -1.12025452 6.56838989 C-1.12117631 5.72955828 -1.1220981 4.89072666 -1.12304783 4.02647591 C-1 2 -1 2 0 0 Z " fill="#F7D6D5" transform="translate(529,397)"/>
<path d="M0 0 C0.66 0.66 1.32 1.32 2 2 C1.66790527 2.79994385 1.33581055 3.5998877 0.99365234 4.42407227 C-0.54688116 8.13647481 -2.08629226 11.84934041 -3.625 15.5625 C-3.90177582 16.23026459 -4.17855164 16.89802917 -4.4637146 17.58602905 C-7.45716143 24.81106021 -10.43916402 32.03863028 -13.3125 39.3125 C-15.56568453 45.00195711 -17.97403381 50.610406 -20.46606445 56.19848633 C-22.37116925 60.48624369 -24.13985657 64.8161284 -25.87060547 69.17700195 C-28.11386633 74.78418426 -30.43824861 80.35829246 -32.75 85.9375 C-33.01123657 86.56852631 -33.27247314 87.19955261 -33.54162598 87.84970093 C-37.9859023 98.5841522 -42.47007961 109.30139391 -47 120 C-48.25802278 115.8735521 -47.43441002 113.76434621 -45.8125 109.75 C-45.38582031 108.67234375 -44.95914062 107.5946875 -44.51953125 106.484375 C-43.49350716 104.1316411 -42.38749378 101.81243336 -41.2109375 99.53125 C-38.29805876 93.78964387 -35.99918647 87.7776373 -33.6262207 81.79882812 C-32.80813955 79.73902103 -31.98355502 77.68190303 -31.15820312 75.625 C-28.16283764 68.4484953 -28.16283764 68.4484953 -26 61 C-25.34 61 -24.68 61 -24 61 C-23.88140625 60.30132812 -23.7628125 59.60265625 -23.640625 58.8828125 C-21.82380962 50.70714329 -18.03104308 42.92530958 -14.5234375 35.3515625 C-12.41685266 30.71707585 -10.39188562 26.04910398 -8.375 21.375 C-7.99053711 20.49199219 -7.60607422 19.60898437 -7.20996094 18.69921875 C-5.10017719 13.79410901 -3.21133878 8.89111241 -1.60009766 3.79931641 C-1 2 -1 2 0 0 Z " fill="#FEE7E6" transform="translate(384,408)"/>
<path d="M0 0 C4.29 0 8.58 0 13 0 C12.67 1.32 12.34 2.64 12 4 C10.68 3.67 9.36 3.34 8 3 C9.66924071 6.04134491 9.66924071 6.04134491 12 7 C11.67 9.64 11.34 12.28 11 15 C11.99 15 12.98 15 14 15 C13.67 16.32 13.34 17.64 13 19 C8.38 19 3.76 19 -1 19 C-0.34 18.34 0.32 17.68 1 17 C1.3063859 14.26565038 1.5113336 11.61720179 1.625 8.875 C1.66367187 8.12089844 1.70234375 7.36679687 1.7421875 6.58984375 C1.83651031 4.72696816 1.91934662 2.86351745 2 1 C1.34 0.67 0.68 0.34 0 0 Z " fill="#F0CAC9" transform="translate(531,599)"/>
<path d="M0 0 C3 1.9375 3 1.9375 5 5 C5.91958062 9.50024851 5.50963271 12.91426075 3.5625 17.0625 C0.3130046 19.51943555 -1.80445945 19.70840075 -5.80859375 19.50390625 C-9.25108 18.7123185 -10.88338855 16.71190842 -13 14 C-13.33 13.67 -13.66 13.34 -14 13 C-14.35040798 9.99650304 -14.56293508 7.90758702 -14 5 C-9.76147766 -0.08622681 -6.49629303 -1.03115762 0 0 Z M-11 5 C-11.56389816 7.77961922 -11.56504735 10.22042363 -11 13 C-9.08302862 15.76895867 -7.62423725 16.72789658 -4.5625 18.0625 C-1.77314345 18.23355383 -1.77314345 18.23355383 0.8125 16 C3.24034009 13.1303761 3.24034009 13.1303761 3.625 9.5 C2.83870692 5.09675873 1.57997706 3.62531651 -2 1 C-6.39659181 0.03489448 -8.52307459 1.33048087 -11 5 Z " fill="#FEEBEB" transform="translate(412,599)"/>
<path d="M0 0 C0.33 0.66 0.66 1.32 1 2 C1.66 2.33 2.32 2.66 3 3 C3 3.66 3 4.32 3 5 C19.335 5.495 19.335 5.495 36 6 C36 6.66 36 7.32 36 8 C21.15 8 6.3 8 -9 8 C-9 7.34 -9 6.68 -9 6 C-8.071875 5.7525 -7.14375 5.505 -6.1875 5.25 C-2.83541675 3.93545755 -1.8122197 3.02036616 0 0 Z " fill="#FDE8E6" transform="translate(868,560)"/>
<path d="M0 0 C1.89355469 0.32983398 1.89355469 0.32983398 4 1 C5.703125 3.72265625 5.703125 3.72265625 7.25 7.0625 C7.77078125 8.16722656 8.2915625 9.27195312 8.828125 10.41015625 C9.21484375 11.26480469 9.6015625 12.11945312 10 13 C11.65 9.7 13.3 6.4 15 3 C16.20577254 7.82309018 15.4840323 8.59880178 13.0625 12.75 C12.49660156 13.73484375 11.93070312 14.7196875 11.34765625 15.734375 C10.90292969 16.48203125 10.45820313 17.2296875 10 18 C7.39954125 15.6975881 6.15260817 13.50103323 4.8125 10.3125 C4.29623047 9.10013672 4.29623047 9.10013672 3.76953125 7.86328125 C3.38861328 6.94095703 3.38861328 6.94095703 3 6 C2.97303635 7.79158489 2.95362083 9.58328473 2.9375 11.375 C2.92589844 12.37273438 2.91429687 13.37046875 2.90234375 14.3984375 C2.81993398 16.98432453 2.81993398 16.98432453 4 19 C2.02 19 0.04 19 -2 19 C-1.67 18.34 -1.34 17.68 -1 17 C-0.76725791 14.12089412 -0.58027243 11.25853505 -0.4375 8.375 C-0.39431641 7.57320312 -0.35113281 6.77140625 -0.30664062 5.9453125 C-0.20048543 3.9637489 -0.09973145 1.98189729 0 0 Z " fill="#FEECEE" transform="translate(483,599)"/>
<path d="M0 0 C-0.66 0.99 -1.32 1.98 -2 3 C-2.66 2.67 -3.32 2.34 -4 2 C-13.31893248 0.94786246 -20.05631926 4.4623202 -27.5546875 9.828125 C-34.62735483 15.6862939 -39.64750062 23.06050237 -42 32 C-42.66 31.34 -43.32 30.68 -44 30 C-43.21232408 28.06087416 -42.4197133 26.12375234 -41.625 24.1875 C-41.18414063 23.10855469 -40.74328125 22.02960938 -40.2890625 20.91796875 C-39 18 -39 18 -37 15 C-36.34 15 -35.68 15 -35 15 C-34.75894531 14.4225 -34.51789062 13.845 -34.26953125 13.25 C-30.57137348 6.69572654 -23.41223563 2.78520607 -16.5 0.4375 C-10.74130651 -1.1268426 -5.82344531 -1.20938368 0 0 Z " fill="#FDE4E5" transform="translate(572,482)"/>
<path d="M0 0 C0.33 1.32 0.66 2.64 1 4 C0.46375 3.67 -0.0725 3.34 -0.625 3 C-3.64275242 1.7293674 -5.74992741 1.66145077 -9 2 C-11.48105194 2.90235835 -11.48105194 2.90235835 -13 5 C-13.45946109 8.6100514 -13.55817846 10.97606873 -11.796875 14.20703125 C-10.12166642 16.22979282 -10.12166642 16.22979282 -7.51953125 16.390625 C-6.62621094 16.34421875 -5.73289062 16.2978125 -4.8125 16.25 C-3.46091797 16.19585938 -3.46091797 16.19585938 -2.08203125 16.140625 C-1.39496094 16.09421875 -0.70789063 16.0478125 0 16 C0 15.34 0 14.68 0 14 C0.66 14 1.32 14 2 14 C0.25 17.875 0.25 17.875 -2 19 C-8.10397596 19.50866466 -11.10769166 19.05703618 -16 15 C-17.75136273 11.49727453 -16.96832792 7.70204278 -16 4 C-10.96694277 -1.44114295 -6.97968205 -1.20802189 0 0 Z " fill="#FEE7E6" transform="translate(371,599)"/>
<path d="M0 0 C0.86825912 0.00222061 1.73651825 0.00444122 2.63108826 0.00672913 C3.61202957 0.00680466 4.59297089 0.00688019 5.6036377 0.00695801 C6.6702916 0.01211929 7.7369455 0.01728058 8.83592224 0.02259827 C9.92211349 0.02401321 11.00830475 0.02542816 12.12741089 0.02688599 C15.61230674 0.03250403 19.09713941 0.04505959 22.58201599 0.05775452 C24.93813486 0.06276719 27.29425473 0.0673305 29.65037537 0.07142639 C35.44011063 0.08247933 41.2298088 0.09923501 47.01951599 0.12025452 C47.01951599 0.45025452 47.01951599 0.78025452 47.01951599 1.12025452 C45.59639099 1.33681702 45.59639099 1.33681702 44.14451599 1.55775452 C41.12606659 1.94960851 41.12606659 1.94960851 39.01951599 3.12025452 C36.07643653 3.18301274 33.15688061 3.18708225 30.21482849 3.14759827 C28.41665334 3.13495021 26.61847616 3.12258938 24.82029724 3.11048889 C21.98055202 3.08567368 19.14091194 3.05771212 16.30125427 3.02430725 C13.56410551 2.99409537 10.82709088 2.97632511 8.08982849 2.96009827 C6.81778061 2.93990883 6.81778061 2.93990883 5.52003479 2.91931152 C4.72596222 2.91593277 3.93188965 2.91255402 3.11375427 2.90907288 C2.41807343 2.90161545 1.72239258 2.89415802 1.00563049 2.88647461 C-1.32874316 3.16124711 -2.94737211 3.96993887 -4.98048401 5.12025452 C-2.57870523 0.15657837 -2.57870523 0.15657837 0 0 Z " fill="#FEE5E5" transform="translate(536.9804840087891,388.87974548339844)"/>
<path d="M0 0 C14.85 0 29.7 0 45 0 C45 0.66 45 1.32 45 2 C43.906875 2.28875 42.81375 2.5775 41.6875 2.875 C37.95986155 3.81893204 37.95986155 3.81893204 35 6 C35 5.01 35 4.02 35 3 C23.78 2.67 12.56 2.34 1 2 C0.67 1.34 0.34 0.68 0 0 Z " fill="#FEE7E7" transform="translate(659,389)"/>
<path d="M0 0 C0.99 0.33 1.98 0.66 3 1 C5.2825699 1.15145099 7.56887706 1.24886979 9.85546875 1.31640625 C10.51710526 1.33718735 11.17874176 1.35796844 11.86042786 1.37937927 C13.96934852 1.44464727 16.07839135 1.50365344 18.1875 1.5625 C19.61915315 1.60570689 21.05079404 1.64932188 22.48242188 1.69335938 C25.98815154 1.80030506 29.49401786 1.90163641 33 2 C33 2.66 33 3.32 33 4 C18.15 4 3.3 4 -12 4 C-12 3.34 -12 2.68 -12 2 C-4.57142857 0.71428571 -4.57142857 0.71428571 -1 2 C-0.67 1.34 -0.34 0.68 0 0 Z " fill="#FBE9E5" transform="translate(671,564)"/>
<path d="M0 0 C1.23556641 0.01740234 1.23556641 0.01740234 2.49609375 0.03515625 C3.32238281 0.04417969 4.14867187 0.05320312 5 0.0625 C5.63808594 0.07410156 6.27617187 0.08570313 6.93359375 0.09765625 C6.93359375 1.08765625 6.93359375 2.07765625 6.93359375 3.09765625 C5.94359375 3.09765625 4.95359375 3.09765625 3.93359375 3.09765625 C3.93359375 2.43765625 3.93359375 1.77765625 3.93359375 1.09765625 C2.28359375 1.09765625 0.63359375 1.09765625 -1.06640625 1.09765625 C-1.06640625 2.74765625 -1.06640625 4.39765625 -1.06640625 6.09765625 C-0.48890625 6.36578125 0.08859375 6.63390625 0.68359375 6.91015625 C5.05124081 9.21530331 5.05124081 9.21530331 6.93359375 11.09765625 C7.30859375 14.16015625 7.30859375 14.16015625 6.93359375 17.09765625 C4.93359375 19.09765625 4.93359375 19.09765625 3.0234375 19.328125 C-2.95529514 19.20876736 -2.95529514 19.20876736 -4.06640625 18.09765625 C-4.10704457 16.4314851 -4.10912725 14.7637753 -4.06640625 13.09765625 C-3.40640625 14.41765625 -2.74640625 15.73765625 -2.06640625 17.09765625 C0.24359375 17.09765625 2.55359375 17.09765625 4.93359375 17.09765625 C4.73888264 15.14766496 4.73888264 15.14766496 3.93359375 13.09765625 C2.60951706 12.412789 1.27450134 11.74895422 -0.06640625 11.09765625 C-2.37890625 8.78515625 -2.37890625 8.78515625 -4.06640625 6.09765625 C-3.66245814 0.17308403 -3.66245814 0.17308403 0 0 Z " fill="#FEEAEA" transform="translate(448.06640625,598.90234375)"/>
<path d="M0 0 C0.99 0.33 1.98 0.66 3 1 C5.51054905 1.1529647 7.99888525 1.25695178 10.51171875 1.31640625 C11.23994339 1.33718735 11.96816803 1.35796844 12.71846008 1.37937927 C15.04137875 1.44468746 17.36440906 1.50367237 19.6875 1.5625 C21.26368335 1.60570305 22.83985548 1.64931792 24.41601562 1.69335938 C28.27722975 1.8003496 32.13855603 1.90166961 36 2 C36 2.66 36 3.32 36 4 C21.15 4 6.3 4 -9 4 C-8.67 3.34 -8.34 2.68 -8 2 C-5.69 2 -3.38 2 -1 2 C-0.67 1.34 -0.34 0.68 0 0 Z " fill="#FDE6E4" transform="translate(448,564)"/>
<path d="M0 0 C2.05078125 0.03255208 4.1015625 0.06510417 6.15234375 0.09765625 C6.15234375 1.74765625 6.15234375 3.39765625 6.15234375 5.09765625 C5.49234375 3.77765625 4.83234375 2.45765625 4.15234375 1.09765625 C2.50234375 1.42765625 0.85234375 1.75765625 -0.84765625 2.09765625 C-0.79997222 3.97646497 -0.79997222 3.97646497 0.15234375 6.09765625 C3.09471157 8.3093385 3.09471157 8.3093385 6.15234375 10.09765625 C7.15234375 11.09765625 7.15234375 11.09765625 7.40234375 14.03515625 C7.31984375 15.04578125 7.23734375 16.05640625 7.15234375 17.09765625 C3.49580548 19.53534843 1.46234274 19.33710064 -2.84765625 19.09765625 C-3.84765625 18.09765625 -3.84765625 18.09765625 -3.91015625 15.53515625 C-3.88953125 14.73078125 -3.86890625 13.92640625 -3.84765625 13.09765625 C-3.01234375 14.08765625 -3.01234375 14.08765625 -2.16015625 15.09765625 C-0.00703317 17.35257836 -0.00703317 17.35257836 2.90234375 17.34765625 C4.01609375 17.22390625 4.01609375 17.22390625 5.15234375 17.09765625 C4.61558472 13.24662324 3.03633452 11.77968038 0.08984375 9.34765625 C-0.64363281 8.7340625 -1.37710938 8.12046875 -2.1328125 7.48828125 C-2.69871094 7.029375 -3.26460937 6.57046875 -3.84765625 6.09765625 C-2.77957394 0.14691194 -2.77957394 0.14691194 0 0 Z " fill="#FEE9EB" transform="translate(691.84765625,598.90234375)"/>
<path d="M0 0 C4.95 0 9.9 0 15 0 C14.67 0.99 14.34 1.98 14 3 C14 2.34 14 1.68 14 1 C12.35 1 10.7 1 9 1 C9.14053872 3.62538284 9.28718947 6.25017427 9.4375 8.875 C9.47681641 9.62136719 9.51613281 10.36773438 9.55664062 11.13671875 C9.71573624 15.19986864 9.71573624 15.19986864 11 19 C8.36 19 5.72 19 3 19 C3.99 18.67 4.98 18.34 6 18 C6 12.39 6 6.78 6 1 C4.02 1.66 2.04 2.32 0 3 C0 2.01 0 1.02 0 0 Z " fill="#FEECEB" transform="translate(570,599)"/>
<path d="M0 0 C4.29 0 8.58 0 13 0 C13 0.66 13 1.32 13 2 C10.03 1.67 7.06 1.34 4 1 C4.33 2.98 4.66 4.96 5 7 C7.97 7.495 7.97 7.495 11 8 C10.67 8.66 10.34 9.32 10 10 C7.03 9.505 7.03 9.505 4 9 C4.33 11.64 4.66 14.28 5 17 C8.96 16.505 8.96 16.505 13 16 C13 16.99 13 17.98 13 19 C8.38 19 3.76 19 -1 19 C-0.34 18.34 0.32 17.68 1 17 C1.3063859 14.26565038 1.5113336 11.61720179 1.625 8.875 C1.66367187 8.12089844 1.70234375 7.36679687 1.7421875 6.58984375 C1.83651031 4.72696816 1.91934662 2.86351745 2 1 C1.34 0.67 0.68 0.34 0 0 Z " fill="#FEF1EE" transform="translate(531,599)"/>
<path d="M0 0 C0.66 0.33 1.32 0.66 2 1 C1.01 2.485 1.01 2.485 0 4 C-0.10094856 6.26089862 -0.10094856 6.26089862 0.25 8.625 C0.33765625 9.42164063 0.4253125 10.21828125 0.515625 11.0390625 C0.67546875 11.68617188 0.8353125 12.33328125 1 13 C1.66 13.33 2.32 13.66 3 14 C3 14.66 3 15.32 3 16 C5.97 16 8.94 16 12 16 C12.33 15.01 12.66 14.02 13 13 C13.66 13 14.32 13 15 13 C15 13.99 15 14.98 15 16 C10.67162806 18.45372559 6.88430889 18.6878082 2 18 C-1 16.4375 -1 16.4375 -3 14 C-4.2520293 9.77440113 -4.29480235 7.72360577 -2.625 3.625 C-1 1 -1 1 0 0 Z " fill="#FEECEA" transform="translate(647,600)"/>
<path d="M0 0 C12.21 0 24.42 0 37 0 C36.34 0.99 35.68 1.98 35 3 C32.36751855 3.19560293 29.98767094 3.20770245 27.3671875 3.07421875 C26.61535187 3.04777786 25.86351624 3.02133698 25.08889771 2.99409485 C22.68346885 2.90620028 20.27952817 2.79710197 17.875 2.6875 C16.24614737 2.62425458 14.61724057 2.56238807 12.98828125 2.50195312 C8.99138279 2.35063926 4.99569151 2.18030187 1 2 C0.67 1.34 0.34 0.68 0 0 Z " fill="#FEE6E5" transform="translate(497,389)"/>
<path d="M0 0 C2.45205923 3.67808884 4.0012885 7.49058645 5.6875 11.5625 C6.02072266 12.34302734 6.35394531 13.12355469 6.69726562 13.92773438 C7.00728516 14.67474609 7.31730469 15.42175781 7.63671875 16.19140625 C7.92248779 16.87404541 8.20825684 17.55668457 8.50268555 18.26000977 C9 20 9 20 8 22 C7.01 20.9171875 7.01 20.9171875 6 19.8125 C2.75863467 16.54311134 -1.04374711 14.3069961 -5 12 C-4.01 11.67 -3.02 11.34 -2 11 C-1.34 11.33 -0.68 11.66 0 12 C0 8.04 0 4.08 0 0 Z " fill="#EFC8CB" transform="translate(834,474)"/>
<path d="M0 0 C0.99 0 1.98 0 3 0 C2.85187758 10.48976073 1.99356955 19.52621851 -3 29 C-3.66 29.33 -4.32 29.66 -5 30 C-4.46723108 24.77886461 -3.05557818 20.79634909 -1 16 C0.08883731 10.65479868 0.11078059 5.42824893 0 0 Z " fill="#EBC8CB" transform="translate(602,432)"/>
<path d="M0 0 C0.33 0.66 0.66 1.32 1 2 C-0.1796875 4.71484375 -0.1796875 4.71484375 -1.875 7.9375 C-4.18808586 12.3618696 -4.18808586 12.3618696 -6 17 C-8.74852621 20.04566418 -11.17377257 22.4411666 -15 24 C-13.6878302 20.41847372 -12.10380616 17.44752292 -9.9375 14.3125 C-7.8177976 11.24499911 -7.8177976 11.24499911 -6 8 C-5.34 8 -4.68 8 -4 8 C-3.71125 7.236875 -3.4225 6.47375 -3.125 5.6875 C-2 3 -2 3 0 0 Z " fill="#ECCACD" transform="translate(258,438)"/>
<path d="M0 0 C0 2 0 2 -2.4375 4.5 C-3.283125 5.325 -4.12875 6.15 -5 7 C-5.33 7.66 -5.66 8.32 -6 9 C-6.99 9.33 -7.98 9.66 -9 10 C-9.33 10.66 -9.66 11.32 -10 12 C-12.31 12 -14.62 12 -17 12 C-14.87229133 9.63587926 -13.37702905 8.14363011 -10.375 7 C-7.46755021 5.77581061 -7.22632942 4.80303866 -6 2 C-3 0 -3 0 0 0 Z " fill="#EFC6CA" transform="translate(527,554)"/>
<path d="M0 0 C1.65 0 3.3 0 5 0 C4.67 0.66 4.34 1.32 4 2 C3.59593052 7.72827916 4.17624859 13.33670904 5 19 C3.68 19 2.36 19 1 19 C0.67 12.73 0.34 6.46 0 0 Z " fill="#FEEDEC" transform="translate(499,599)"/>
<path d="M0 0 C2.6597889 1.32989445 2.9835728 2.68898191 4.1875 5.375 C4.55230469 6.16648437 4.91710937 6.95796875 5.29296875 7.7734375 C6 10 6 10 5 13 C4.01 13.33 3.02 13.66 2 14 C0 12 0 12 -0.1953125 9.1796875 C-0.17210937 8.08914063 -0.14890625 6.99859375 -0.125 5.875 C-0.10695313 4.77929688 -0.08890625 3.68359375 -0.0703125 2.5546875 C-0.04710937 1.71164062 -0.02390625 0.86859375 0 0 Z " fill="#E7C6C7" transform="translate(485,604)"/>
<path d="M0 0 C1.65 0 3.3 0 5 0 C4.97679687 1.20398438 4.95359375 2.40796875 4.9296875 3.6484375 C4.91093137 5.22395215 4.89273101 6.79947348 4.875 8.375 C4.85824219 9.1690625 4.84148438 9.963125 4.82421875 10.78125 C4.80664527 12.85492015 4.89664832 14.92883241 5 17 C5.66 17.66 6.32 18.32 7 19 C4.69 19 2.38 19 0 19 C0.33 18.34 0.66 17.68 1 17 C1.2322646 14.28737884 1.41936235 11.59226874 1.5625 8.875 C1.60568359 8.12089844 1.64886719 7.36679687 1.69335938 6.58984375 C1.7994832 4.72678112 1.90025001 2.86341476 2 1 C1.34 0.67 0.68 0.34 0 0 Z " fill="#FFF2F2" transform="translate(611,599)"/>
<path d="M0 0 C3.91608844 0.58145857 6.69096793 1.7541458 10.0625 3.8125 C10.89910156 4.31394531 11.73570312 4.81539063 12.59765625 5.33203125 C15.02421481 7.01681256 16.94430837 8.88936784 19 11 C19.33 11 19.66 11 20 11 C20 12.65 20 14.3 20 16 C19.360625 15.319375 18.72125 14.63875 18.0625 13.9375 C12.76138941 8.65144939 6.88160053 3.99967203 0 1 C0 0.67 0 0.34 0 0 Z " fill="#FEE6E5" transform="translate(824,484)"/>
<path d="M0 0 C4.62 0 9.24 0 14 0 C14 0.33 14 0.66 14 1 C10.37 1.33 6.74 1.66 3 2 C3 5.63 3 9.26 3 13 C2.01 13.495 2.01 13.495 1 14 C0.82975495 12.60459859 0.6639851 11.20865091 0.5 9.8125 C0.4071875 9.03519531 0.314375 8.25789062 0.21875 7.45703125 C-0.00177329 4.98008214 0 2.48674635 0 0 Z " fill="#ECCAC8" transform="translate(530,598)"/>
<path d="M0 0 C-0.53625 0.391875 -1.0725 0.78375 -1.625 1.1875 C-3.52387626 2.63664241 -5.31859491 4.12903286 -7.125 5.6875 C-10 8 -10 8 -12 8 C-12.33 8.99 -12.66 9.98 -13 11 C-13.33 10.34 -13.66 9.68 -14 9 C-10.93451569 1.41695988 -8.1433064 -0.46980614 0 0 Z " fill="#ECC6C9" transform="translate(543,391)"/>
<path d="M0 0 C1 3 1 3 -0.0390625 5.55859375 C-5.290346 15.09109606 -5.290346 15.09109606 -10 18 C-10 17.01 -10 16.02 -10 15 C-9.01 14.67 -8.02 14.34 -7 14 C-5.88319294 11.15020361 -5.88319294 11.15020361 -5 8 C-4.36184656 6.65278717 -3.70674629 5.31252882 -3 4 C-2.34 4 -1.68 4 -1 4 C-0.67 2.68 -0.34 1.36 0 0 Z " fill="#EECACB" transform="translate(233,475)"/>
<path d="M0 0 C0.66 0 1.32 0 2 0 C2.33 0.66 2.66 1.32 3 2 C3.99 1.34 4.98 0.68 6 0 C5.98839844 0.65226562 5.97679687 1.30453125 5.96484375 1.9765625 C5.91529006 6.7761914 6.00586249 11.27784685 7 16 C4.64917788 13.10357159 3.16480594 10.34643669 1.8125 6.875 C1.46832031 6.00617188 1.12414062 5.13734375 0.76953125 4.2421875 C0 2 0 2 0 0 Z " fill="#EDC8CA" transform="translate(401,400)"/>
<path d="M0 0 C2.22038744 3.33058117 2.70223318 4.13771751 2 8 C0.24993669 10.58214862 -1.6782271 12.91281037 -4 15 C-4.66 15 -5.32 15 -6 15 C-6 14.01 -6 13.02 -6 12 C-5.34 12 -4.68 12 -4 12 C-3.896875 11.319375 -3.79375 10.63875 -3.6875 9.9375 C-2.85274981 6.37084011 -1.50527246 3.33777806 0 0 Z " fill="#FDF2F2" transform="translate(172,391)"/>
<path d="M0 0 C1.83590188 0.0377638 3.67051617 0.15454199 5.5 0.3125 C6.5003125 0.39113281 7.500625 0.46976563 8.53125 0.55078125 C9.75328125 0.77314453 9.75328125 0.77314453 11 1 C11.33 1.66 11.66 2.32 12 3 C4.08 3 -3.84 3 -12 3 C-12 2.34 -12 1.68 -12 1 C-11.21753906 1.01160156 -10.43507813 1.02320313 -9.62890625 1.03515625 C-8.61699219 1.04417969 -7.60507812 1.05320312 -6.5625 1.0625 C-5.04849609 1.07990234 -5.04849609 1.07990234 -3.50390625 1.09765625 C-1.05978933 1.28612676 -1.05978933 1.28612676 0 0 Z " fill="#FBE3E1" transform="translate(729,565)"/>
<path d="M0 0 C1.5631897 0.00785522 1.5631897 0.00785522 3.15795898 0.01586914 C4.28266602 0.0190918 5.40737305 0.02231445 6.56616211 0.02563477 C7.75016602 0.03401367 8.93416992 0.04239258 10.15405273 0.05102539 C11.34192383 0.05553711 12.52979492 0.06004883 13.75366211 0.06469727 C16.69967499 0.07652864 19.64558954 0.09301252 22.59155273 0.11352539 C22.59155273 0.44352539 22.59155273 0.77352539 22.59155273 1.11352539 C22.02758789 1.12810791 21.46362305 1.14269043 20.88256836 1.15771484 C18.28493327 1.23297393 15.6884763 1.32937023 13.09155273 1.42602539 C12.20467773 1.44858398 11.31780273 1.47114258 10.40405273 1.49438477 C4.52179091 1.73227035 -0.00606439 2.75944968 -5.40844727 5.11352539 C-3.00264483 0.14153369 -3.00264483 0.14153369 0 0 Z " fill="#FEF0EF" transform="translate(537.408447265625,388.886474609375)"/>
<path d="M0 0 C1.2065625 0.0309375 1.2065625 0.0309375 2.4375 0.0625 C3.5625 4.8125 3.5625 4.8125 2.4375 7.0625 C0 6.3125 0 6.3125 -2.5625 5.0625 C-3.4375 3 -3.4375 3 -3.5625 1.0625 C-2.5625 0.0625 -2.5625 0.0625 0 0 Z " fill="#ECC6C8" transform="translate(693.5625,599.9375)"/>
<path d="M0 0 C0.66 0.66 1.32 1.32 2 2 C1.67 2.66 1.34 3.32 1 4 C0.34 4 -0.32 4 -1 4 C-1.226875 4.680625 -1.45375 5.36125 -1.6875 6.0625 C-3.35572357 9.79614324 -5.55729608 12.72163421 -8 16 C-8.33 15.01 -8.66 14.02 -9 13 C-7.3828125 10.37109375 -7.3828125 10.37109375 -5.125 7.4375 C-2.31857636 3.87131663 -2.31857636 3.87131663 0 0 Z " fill="#E9C5C6" transform="translate(186,510)"/>
<path d="M0 0 C0.75 1.6875 0.75 1.6875 1 4 C-0.80447147 6.61337248 -2.7582981 8.7582981 -5 11 C-5.6425235 13.06874034 -5.6425235 13.06874034 -6 15 C-7.65 15 -9.3 15 -11 15 C-10.60167969 14.56429688 -10.20335937 14.12859375 -9.79296875 13.6796875 C-6.51063169 9.99005314 -4.00600254 6.56922802 -2 2 C-1.34 2 -0.68 2 0 2 C0 1.34 0 0.68 0 0 Z " fill="#ECCCCD" transform="translate(621,456)"/>
<path d="M0 0 C2.125 0.9375 2.125 0.9375 4 2 C4 3.32 4 4.64 4 6 C1.625 6.625 1.625 6.625 -1 7 C-1.66 6.34 -2.32 5.68 -3 5 C-2.34 5 -1.68 5 -1 5 C-1.33 3.68 -1.66 2.36 -2 1 C-1.34 0.67 -0.68 0.34 0 0 Z " fill="#EBC7C9" transform="translate(449,610)"/>
<path d="M0 0 C-0.33 0.99 -0.66 1.98 -1 3 C-0.67 3.33 -0.34 3.66 0 4 C0.57963813 5.25396961 1.11522755 6.52854042 1.625 7.8125 C1.90601563 8.49957031 2.18703125 9.18664062 2.4765625 9.89453125 C3.07598435 12.30563852 2.78460226 13.67234662 2 16 C1.17988688 14.44148245 0.36923787 12.87798284 -0.4375 11.3125 C-0.88996094 10.44238281 -1.34242188 9.57226562 -1.80859375 8.67578125 C-2.95991928 6.09001736 -3.56320753 3.78643472 -4 1 C-2 0 -2 0 0 0 Z " fill="#EEC9CC" transform="translate(860,480)"/>
<path d="M0 0 C6.45027515 0.26327654 9.47915791 2.50664023 14 7 C13.01 7.33 12.02 7.66 11 8 C10.59136719 7.53980469 10.18273437 7.07960938 9.76171875 6.60546875 C7.82536346 4.84085229 6.27511002 4.16028378 3.8125 3.3125 C3.09707031 3.06113281 2.38164063 2.80976563 1.64453125 2.55078125 C1.10183594 2.36902344 0.55914063 2.18726563 0 2 C0 1.34 0 0.68 0 0 Z " fill="#EBC7CA" transform="translate(576,392)"/>
<path d="M0 0 C0.99 0.33 1.98 0.66 3 1 C3.67081836 7.43985624 1.75430238 10.83783423 -2 16 C-2.625 14.14453125 -2.625 14.14453125 -3 12 C-2.34 11.236875 -1.68 10.47375 -1 9.6875 C1.41669912 7.04629354 1.41669912 7.04629354 0.75 3.1875 C0.5025 2.135625 0.255 1.08375 0 0 Z " fill="#EAC9CB" transform="translate(261,392)"/>
<path d="M0 0 C1.39214652 4.17643955 -0.29335734 6.83437793 -1.9375 10.6875 C-2.22818359 11.38939453 -2.51886719 12.09128906 -2.81835938 12.81445312 C-3.53710313 14.54650775 -4.26745331 16.27373781 -5 18 C-5.33 18 -5.66 18 -6 18 C-6.30117104 12.88009231 -5.91032839 10.20380768 -3 6 C-1.9849911 4.00757511 -0.98126556 2.00925805 0 0 Z " fill="#EDC9C8" transform="translate(774,478)"/>
<path d="M0 0 C0.33 0 0.66 0 1 0 C1.33 2.64 1.66 5.28 2 8 C1.01 8.33 0.02 8.66 -1 9 C-1.33 9.66 -1.66 10.32 -2 11 C-2.33 11.66 -2.66 12.32 -3 13 C-3.99 13.33 -4.98 13.66 -6 14 C-6 13.34 -6 12.68 -6 12 C-5.34 12 -4.68 12 -4 12 C-3.86722656 11.42765625 -3.73445313 10.8553125 -3.59765625 10.265625 C-3.00619683 8.02349125 -2.26711146 5.91420381 -1.4375 3.75 C-1.16808594 3.04359375 -0.89867187 2.3371875 -0.62109375 1.609375 C-0.41613281 1.07828125 -0.21117187 0.5471875 0 0 Z " fill="#F1CDCF" transform="translate(276,408)"/>
<path d="M0 0 C3 1.75 3 1.75 6 4 C6 5.32 6 6.64 6 8 C4.35 8.33 2.7 8.66 1 9 C0.67 6.03 0.34 3.06 0 0 Z M3 4 C2.67 4.66 2.34 5.32 2 6 C2.66 6 3.32 6 4 6 C3.67 5.34 3.34 4.68 3 4 Z " fill="#EBCBCC" transform="translate(691,608)"/>
<path d="M0 0 C2.09970981 3.9171057 2.99334562 7.68576696 4 12 C2.02 12 0.04 12 -2 12 C-1.67 11.34 -1.34 10.68 -1 10 C-0.77377919 8.29636178 -0.59111527 6.58671299 -0.4375 4.875 C-0.35371094 3.96492187 -0.26992188 3.05484375 -0.18359375 2.1171875 C-0.12300781 1.41851563 -0.06242187 0.71984375 0 0 Z " fill="#FEE1E3" transform="translate(483,606)"/>
<path d="M0 0 C0.33 0 0.66 0 1 0 C1.33 2.97 1.66 5.94 2 9 C-0.475 10.485 -0.475 10.485 -3 12 C-2.14285714 3.42857143 -2.14285714 3.42857143 0 0 Z " fill="#F0C9CA" transform="translate(883,544)"/>
<path d="M0 0 C0.99 0.495 0.99 0.495 2 1 C2 1.66 2 2.32 2 3 C2.99 3.33 3.98 3.66 5 4 C6.38671875 5.62890625 6.38671875 5.62890625 7.6875 7.5625 C8.12449219 8.20316406 8.56148437 8.84382812 9.01171875 9.50390625 C9.50091797 10.24447266 9.50091797 10.24447266 10 11 C6.49411644 10.43601004 5.01017608 9.33036227 2.75 6.625 C2.22921875 6.01914062 1.7084375 5.41328125 1.171875 4.7890625 C0 3 0 3 0 0 Z " fill="#E9C7C9" transform="translate(563,509)"/>
<path d="M0 0 C0.33 0.66 0.66 1.32 1 2 C0.14453125 4.09375 0.14453125 4.09375 -1.1875 6.5 C-1.61417969 7.2940625 -2.04085937 8.088125 -2.48046875 8.90625 C-4.13704667 11.18883551 -5.40664227 11.97820595 -8 13 C-8 12.34 -8 11.68 -8 11 C-7.34 10.67 -6.68 10.34 -6 10 C-5.09328027 8.53117053 -4.24592135 7.02514118 -3.4375 5.5 C-1.08135593 1.08135593 -1.08135593 1.08135593 0 0 Z " fill="#F2CDD0" transform="translate(221,493)"/>
<path d="M0 0 C0.99 0.33 1.98 0.66 3 1 C0.03 4.96 0.03 4.96 -3 9 C-3.66 8.67 -4.32 8.34 -5 8 C-3.35 5.36 -1.7 2.72 0 0 Z " fill="#F1C9CC" transform="translate(204,518)"/>
<path d="M0 0 C2.6895528 2.6895528 3.69331154 5.45327417 5 9 C4.67 9.99 4.34 10.98 4 12 C2 10.5 2 10.5 0 8 C-0.35800135 5.24128373 -0.18660165 2.79902476 0 0 Z " fill="#E8CFCF" transform="translate(418,484)"/>
<path d="M0 0 C0 0.99 0 1.98 0 3 C-1.65 3.66 -3.3 4.32 -5 5 C-5.33 4.34 -5.66 3.68 -6 3 C-8.01669827 1.86649466 -8.01669827 1.86649466 -10 1 C-6.52674819 -0.1577506 -3.63932552 -0.06866652 0 0 Z " fill="#FCF1F2" transform="translate(578,480)"/>
<path d="M0 0 C0.33 0.66 0.66 1.32 1 2 C0.109375 4.12890625 0.109375 4.12890625 -1.25 6.5625 C-1.68828125 7.36816406 -2.1265625 8.17382812 -2.578125 9.00390625 C-4 11 -4 11 -7 12 C-6.67 10.68 -6.34 9.36 -6 8 C-5.34 8 -4.68 8 -4 8 C-3.71125 7.236875 -3.4225 6.47375 -3.125 5.6875 C-2 3 -2 3 0 0 Z " fill="#F2D2D6" transform="translate(258,438)"/>
<path d="M0 0 C2.27795022 2.27795022 3.05219877 3.93787293 4 7 C3.625 9.3125 3.625 9.3125 3 11 C3 10.01 3 9.02 3 8 C2.01 8 1.02 8 0 8 C-0.79953138 4.71303767 -1.09658936 3.28976808 0 0 Z " fill="#EDC5C8" transform="translate(858,531)"/>
<path d="M0 0 C0.33 0.66 0.66 1.32 1 2 C0.29296875 3.83984375 0.29296875 3.83984375 -0.8125 5.9375 C-1.16957031 6.62714844 -1.52664063 7.31679688 -1.89453125 8.02734375 C-2.84989011 9.73213606 -3.91598646 11.3739797 -5 13 C-4.61271765 7.28758534 -4.12989477 4.26311718 0 0 Z " fill="#EDCACB" transform="translate(517,398)"/>
<path d="M0 0 C0.66 0.66 1.32 1.32 2 2 C-1.63 2 -5.26 2 -9 2 C-7.01176662 -1.97646676 -3.67810698 -1.03741479 0 0 Z " fill="#E7C4C3" transform="translate(542,387)"/>
<path d="M0 0 C2 3.875 2 3.875 2 5 C-1.3 5 -4.6 5 -8 5 C-5.37352812 3.24901874 -2.71224618 1.61268692 0 0 Z " fill="#FEF4F3" transform="translate(507,562)"/>
<path d="M0 0 C-2.06756277 2.7972908 -3.14440371 3.02692273 -6.6875 3.6875 C-7.780625 3.790625 -8.87375 3.89375 -10 4 C-9.34 3.67 -8.68 3.34 -8 3 C-8 2.34 -8 1.68 -8 1 C-5.07175348 0.02391783 -3.04386724 -0.08226668 0 0 Z " fill="#EDC8C8" transform="translate(507,562)"/>
<path d="M0 0 C0.33 0 0.66 0 1 0 C1.125 7.625 1.125 7.625 0 11 C-0.66 11 -1.32 11 -2 11 C-1.85892253 9.54119891 -1.71197585 8.08296449 -1.5625 6.625 C-1.48128906 5.81289063 -1.40007813 5.00078125 -1.31640625 4.1640625 C-1 2 -1 2 0 0 Z " fill="#ECC7C6" transform="translate(771,509)"/>
<path d="M0 0 C0 0.66 0 1.32 0 2 C-1.96875 3.5078125 -1.96875 3.5078125 -4.5 5.125 C-5.3353125 5.66382813 -6.170625 6.20265625 -7.03125 6.7578125 C-7.6809375 7.16773438 -8.330625 7.57765625 -9 8 C-9 7.01 -9 6.02 -9 5 C-3.76744186 0 -3.76744186 0 0 0 Z " fill="#ECCACA" transform="translate(594,468)"/>
<path d="M0 0 C0.33 0.66 0.66 1.32 1 2 C0.34 2 -0.32 2 -1 2 C-1.33 2.99 -1.66 3.98 -2 5 C-2.99 5.495 -2.99 5.495 -4 6 C-4.40729228 8.32156597 -4.74438677 10.6568787 -5 13 C-5.33 13 -5.66 13 -6 13 C-6.7230444 5.89006342 -6.7230444 5.89006342 -4.6640625 3.35546875 C-3 2 -3 2 0 0 Z " fill="#FCE1E0" transform="translate(404,599)"/>
<path d="M0 0 C0.33 0 0.66 0 1 0 C1.375 2.6875 1.375 2.6875 1 6 C-0.823983 8.06398076 -2.72763839 9.39041053 -5 11 C-5.66 10.67 -6.32 10.34 -7 10 C-6.57847656 9.52949219 -6.15695312 9.05898438 -5.72265625 8.57421875 C-5.17480469 7.95160156 -4.62695312 7.32898438 -4.0625 6.6875 C-3.51722656 6.07261719 -2.97195313 5.45773437 -2.41015625 4.82421875 C-0.79918441 2.94758042 -0.79918441 2.94758042 0 0 Z " fill="#EFCFD2" transform="translate(617,554)"/>
<path d="M0 0 C3 1 3 1 5 4 C4.625 7.1875 4.625 7.1875 4 10 C1.04816899 7.04816899 0.91336012 4.04488053 0 0 Z " fill="#EECACB" transform="translate(842,448)"/>
<path d="M0 0 C1.23556641 0.01740234 1.23556641 0.01740234 2.49609375 0.03515625 C3.32238281 0.04417969 4.14867187 0.05320312 5 0.0625 C5.63808594 0.07410156 6.27617187 0.08570313 6.93359375 0.09765625 C6.93359375 1.08765625 6.93359375 2.07765625 6.93359375 3.09765625 C5.94359375 3.09765625 4.95359375 3.09765625 3.93359375 3.09765625 C3.93359375 2.43765625 3.93359375 1.77765625 3.93359375 1.09765625 C2.28359375 1.09765625 0.63359375 1.09765625 -1.06640625 1.09765625 C-1.39640625 2.41765625 -1.72640625 3.73765625 -2.06640625 5.09765625 C-2.62890625 3.16015625 -2.62890625 3.16015625 -3.06640625 1.09765625 C-2.06640625 0.09765625 -2.06640625 0.09765625 0 0 Z " fill="#FEDFE1" transform="translate(448.06640625,598.90234375)"/>
<path d="M0 0 C0.99 0.33 1.98 0.66 3 1 C3 1.99 3 2.98 3 4 C0.36 4 -2.28 4 -5 4 C-2.6875 1.9375 -2.6875 1.9375 0 0 Z " fill="#E3CAC9" transform="translate(874,562)"/>
<path d="M0 0 C0.66 0.33 1.32 0.66 2 1 C-0.475 4.465 -0.475 4.465 -3 8 C-3.66 7.34 -4.32 6.68 -5 6 C-3.86695008 2.60085025 -2.87481525 1.94745549 0 0 Z " fill="#ECC9CB" transform="translate(231,445)"/>
<path d="M0 0 C0.99 0.33 1.98 0.66 3 1 C3 2.32 3 3.64 3 5 C3.66 5 4.32 5 5 5 C5 6.98 5 8.96 5 11 C2.03947516 7.63576723 1.07710178 4.30840713 0 0 Z " fill="#F0D1D2" transform="translate(822,404)"/>
<path d="M0 0 C0.66 0 1.32 0 2 0 C3.7143618 1.95927063 5.38405168 3.95880212 7 6 C5.35 6 3.7 6 2 6 C2 5.34 2 4.68 2 4 C1.34 4 0.68 4 0 4 C0 2.68 0 1.36 0 0 Z " fill="#E9C8CA" transform="translate(169,560)"/>
<path d="M0 0 C0.66 0 1.32 0 2 0 C2.69937202 1.4317616 3.38412718 2.87067032 4.0625 4.3125 C4.63677734 5.51326172 4.63677734 5.51326172 5.22265625 6.73828125 C6 9 6 9 5 12 C4.16440201 10.18854294 3.33157951 8.37580533 2.5 6.5625 C2.0359375 5.55316406 1.571875 4.54382813 1.09375 3.50390625 C0 1 0 1 0 0 Z " fill="#EECCCE" transform="translate(864,500)"/>
<path d="M0 0 C0.598125 0.20625 1.19625 0.4125 1.8125 0.625 C0.4925 1.945 -0.8275 3.265 -2.1875 4.625 C-3.1775 4.295 -4.1675 3.965 -5.1875 3.625 C-5.1875 2.965 -5.1875 2.305 -5.1875 1.625 C-2.1875 -0.375 -2.1875 -0.375 0 0 Z " fill="#EAC8C7" transform="translate(567.1875,483.375)"/>
<path d="M0 0 C2.35953094 2.35953094 2.49141413 3.77895617 3 7 C1.68 7 0.36 7 -1 7 C-1.04254356 5.00045254 -1.04080783 2.99958364 -1 1 C-0.67 0.67 -0.34 0.34 0 0 Z " fill="#EEC8C9" transform="translate(819,441)"/>
<path d="M0 0 C0.99 0.99 1.98 1.98 3 3 C1.71937515 4.7074998 0.38232443 6.37373596 -1 8 C-1.66 8 -2.32 8 -3 8 C-3 7.01 -3 6.02 -3 5 C-2.34 5 -1.68 5 -1 5 C-0.67 3.35 -0.34 1.7 0 0 Z " fill="#FEE6E5" transform="translate(169,398)"/>
<path d="M0 0 C0.66 0 1.32 0 2 0 C2 0.99 2 1.98 2 3 C-3.41538462 5.21538462 -3.41538462 5.21538462 -6.375 4.125 C-6.91125 3.75375 -7.4475 3.3825 -8 3 C-5.69 3 -3.38 3 -1 3 C-0.67 2.01 -0.34 1.02 0 0 Z " fill="#FDDBDA" transform="translate(660,613)"/>
<path d="M0 0 C-1.98 1.32 -3.96 2.64 -6 4 C-7.32 3.34 -8.64 2.68 -10 2 C-3.375 -1.125 -3.375 -1.125 0 0 Z " fill="#E9C6C7" transform="translate(670,562)"/>
<path d="M0 0 C0.66 0 1.32 0 2 0 C5 5.75 5 5.75 5 8 C2 7 2 7 0.8125 5.125 C0 3 0 3 0 0 Z " fill="#EBC7CB" transform="translate(442,542)"/>
<path d="M0 0 C0.66 0 1.32 0 2 0 C1.64950425 3.24208567 1.43778819 4.61527704 -1.0625 6.8125 C-1.701875 7.204375 -2.34125 7.59625 -3 8 C-2.37240135 5.07120629 -1.41377341 2.63904371 0 0 Z " fill="#E9C7C6" transform="translate(220,459)"/>
<path d="M0 0 C2.125 0.375 2.125 0.375 4 1 C3.195625 1.45375 2.39125 1.9075 1.5625 2.375 C-1.08856572 3.74725665 -1.08856572 3.74725665 -2 6 C-2.66 6 -3.32 6 -4 6 C-2.84826645 3.53199953 -1.95216435 1.95216435 0 0 Z " fill="#EAC7C9" transform="translate(174,398)"/>
<path d="M0 0 C3.3 0 6.6 0 10 0 C10.33 1.32 10.66 2.64 11 4 C10.01 3.67 9.02 3.34 8 3 C8 2.34 8 1.68 8 1 C5.36 1 2.72 1 0 1 C0 0.67 0 0.34 0 0 Z " fill="#FEE8E7" transform="translate(650,599)"/>
<path d="M0 0 C0.33 0.99 0.66 1.98 1 3 C-0.4375 5.6875 -0.4375 5.6875 -2 8 C-2.66 7.34 -3.32 6.68 -4 6 C-2.68 4.02 -1.36 2.04 0 0 Z " fill="#EBCDCD" transform="translate(510,554)"/>
<path d="M0 0 C0.33 0.99 0.66 1.98 1 3 C-0.9375 6.1875 -0.9375 6.1875 -3 9 C-3.33 7.68 -3.66 6.36 -4 5 C-3.34 5 -2.68 5 -2 5 C-1.7834375 4.0409375 -1.7834375 4.0409375 -1.5625 3.0625 C-1 1 -1 1 0 0 Z " fill="#E9C4C5" transform="translate(237,435)"/>
<path d="M0 0 C2 2 2 2 2 5 C0.35 5.66 -1.3 6.32 -3 7 C-1.125 1.125 -1.125 1.125 0 0 Z " fill="#ECC7C9" transform="translate(266,427)"/>
<path d="M0 0 C1.32 0 2.64 0 4 0 C3.125 4.75 3.125 4.75 2 7 C1.34 7 0.68 7 0 7 C0 4.69 0 2.38 0 0 Z " fill="#F0C9CA" transform="translate(377,416)"/>
</svg>
